<?xml version="1.0" encoding="utf-8" standalone="no"?>
<!DOCTYPE svg PUBLIC "-//W3C//DTD SVG 1.1//EN"
  "http://www.w3.org/Graphics/SVG/1.1/DTD/svg11.dtd">
<svg xmlns:xlink="http://www.w3.org/1999/xlink" width="505.332812pt" height="392.514375pt" viewBox="0 0 505.332812 392.514375" xmlns="http://www.w3.org/2000/svg" version="1.1">
 <metadata>
  <rdf:RDF xmlns:dc="http://purl.org/dc/elements/1.1/" xmlns:cc="http://creativecommons.org/ns#" xmlns:rdf="http://www.w3.org/1999/02/22-rdf-syntax-ns#">
   <cc:Work>
    <dc:type rdf:resource="http://purl.org/dc/dcmitype/StillImage"/>
    <dc:date>2025-07-21T12:46:28.896569</dc:date>
    <dc:format>image/svg+xml</dc:format>
    <dc:creator>
     <cc:Agent>
      <dc:title>Matplotlib v3.10.3, https://matplotlib.org/</dc:title>
     </cc:Agent>
    </dc:creator>
   </cc:Work>
  </rdf:RDF>
 </metadata>
 <defs>
  <style type="text/css">*{stroke-linejoin: round; stroke-linecap: butt}</style>
 </defs>
 <g id="figure_1">
  <g id="patch_1">
   <path d="M 0 392.514375 
L 505.332812 392.514375 
L 505.332812 0 
L 0 0 
z
" style="fill: #ffffff"/>
  </g>
  <g id="axes_1">
   <g id="patch_2">
    <path d="M 43.78125 354.958125 
L 490.18125 354.958125 
L 490.18125 22.318125 
L 43.78125 22.318125 
z
" style="fill: #ffffff"/>
   </g>
   <g id="matplotlib.axis_1">
    <g id="xtick_1">
     <g id="line2d_1">
      <path d="M 43.78125 354.958125 
L 43.78125 22.318125 
" clip-path="url(#p7f9bfa9af4)" style="fill: none; stroke: #b0b0b0; stroke-width: 0.8; stroke-linecap: square"/>
     </g>
     <g id="line2d_2">
      <defs>
       <path id="mfeb181a4a8" d="M 0 0 
L 0 3.5 
" style="stroke: #000000; stroke-width: 0.8"/>
      </defs>
      <g>
       <use xlink:href="#mfeb181a4a8" x="43.78125" y="354.958125" style="stroke: #000000; stroke-width: 0.8"/>
      </g>
     </g>
     <g id="text_1">
      <!-- 0.0 -->
      <g transform="translate(35.829688 369.556562) scale(0.1 -0.1)">
       <defs>
        <path id="DejaVuSans-30" d="M 2034 4250 
Q 1547 4250 1301 3770 
Q 1056 3291 1056 2328 
Q 1056 1369 1301 889 
Q 1547 409 2034 409 
Q 2525 409 2770 889 
Q 3016 1369 3016 2328 
Q 3016 3291 2770 3770 
Q 2525 4250 2034 4250 
z
M 2034 4750 
Q 2819 4750 3233 4129 
Q 3647 3509 3647 2328 
Q 3647 1150 3233 529 
Q 2819 -91 2034 -91 
Q 1250 -91 836 529 
Q 422 1150 422 2328 
Q 422 3509 836 4129 
Q 1250 4750 2034 4750 
z
" transform="scale(0.015625)"/>
        <path id="DejaVuSans-2e" d="M 684 794 
L 1344 794 
L 1344 0 
L 684 0 
L 684 794 
z
" transform="scale(0.015625)"/>
       </defs>
       <use xlink:href="#DejaVuSans-30"/>
       <use xlink:href="#DejaVuSans-2e" transform="translate(63.623047 0)"/>
       <use xlink:href="#DejaVuSans-30" transform="translate(95.410156 0)"/>
      </g>
     </g>
    </g>
    <g id="xtick_2">
     <g id="line2d_3">
      <path d="M 133.06125 354.958125 
L 133.06125 22.318125 
" clip-path="url(#p7f9bfa9af4)" style="fill: none; stroke: #b0b0b0; stroke-width: 0.8; stroke-linecap: square"/>
     </g>
     <g id="line2d_4">
      <g>
       <use xlink:href="#mfeb181a4a8" x="133.06125" y="354.958125" style="stroke: #000000; stroke-width: 0.8"/>
      </g>
     </g>
     <g id="text_2">
      <!-- 0.2 -->
      <g transform="translate(125.109688 369.556562) scale(0.1 -0.1)">
       <defs>
        <path id="DejaVuSans-32" d="M 1228 531 
L 3431 531 
L 3431 0 
L 469 0 
L 469 531 
Q 828 903 1448 1529 
Q 2069 2156 2228 2338 
Q 2531 2678 2651 2914 
Q 2772 3150 2772 3378 
Q 2772 3750 2511 3984 
Q 2250 4219 1831 4219 
Q 1534 4219 1204 4116 
Q 875 4013 500 3803 
L 500 4441 
Q 881 4594 1212 4672 
Q 1544 4750 1819 4750 
Q 2544 4750 2975 4387 
Q 3406 4025 3406 3419 
Q 3406 3131 3298 2873 
Q 3191 2616 2906 2266 
Q 2828 2175 2409 1742 
Q 1991 1309 1228 531 
z
" transform="scale(0.015625)"/>
       </defs>
       <use xlink:href="#DejaVuSans-30"/>
       <use xlink:href="#DejaVuSans-2e" transform="translate(63.623047 0)"/>
       <use xlink:href="#DejaVuSans-32" transform="translate(95.410156 0)"/>
      </g>
     </g>
    </g>
    <g id="xtick_3">
     <g id="line2d_5">
      <path d="M 222.34125 354.958125 
L 222.34125 22.318125 
" clip-path="url(#p7f9bfa9af4)" style="fill: none; stroke: #b0b0b0; stroke-width: 0.8; stroke-linecap: square"/>
     </g>
     <g id="line2d_6">
      <g>
       <use xlink:href="#mfeb181a4a8" x="222.34125" y="354.958125" style="stroke: #000000; stroke-width: 0.8"/>
      </g>
     </g>
     <g id="text_3">
      <!-- 0.4 -->
      <g transform="translate(214.389688 369.556562) scale(0.1 -0.1)">
       <defs>
        <path id="DejaVuSans-34" d="M 2419 4116 
L 825 1625 
L 2419 1625 
L 2419 4116 
z
M 2253 4666 
L 3047 4666 
L 3047 1625 
L 3713 1625 
L 3713 1100 
L 3047 1100 
L 3047 0 
L 2419 0 
L 2419 1100 
L 313 1100 
L 313 1709 
L 2253 4666 
z
" transform="scale(0.015625)"/>
       </defs>
       <use xlink:href="#DejaVuSans-30"/>
       <use xlink:href="#DejaVuSans-2e" transform="translate(63.623047 0)"/>
       <use xlink:href="#DejaVuSans-34" transform="translate(95.410156 0)"/>
      </g>
     </g>
    </g>
    <g id="xtick_4">
     <g id="line2d_7">
      <path d="M 311.62125 354.958125 
L 311.62125 22.318125 
" clip-path="url(#p7f9bfa9af4)" style="fill: none; stroke: #b0b0b0; stroke-width: 0.8; stroke-linecap: square"/>
     </g>
     <g id="line2d_8">
      <g>
       <use xlink:href="#mfeb181a4a8" x="311.62125" y="354.958125" style="stroke: #000000; stroke-width: 0.8"/>
      </g>
     </g>
     <g id="text_4">
      <!-- 0.6 -->
      <g transform="translate(303.669688 369.556562) scale(0.1 -0.1)">
       <defs>
        <path id="DejaVuSans-36" d="M 2113 2584 
Q 1688 2584 1439 2293 
Q 1191 2003 1191 1497 
Q 1191 994 1439 701 
Q 1688 409 2113 409 
Q 2538 409 2786 701 
Q 3034 994 3034 1497 
Q 3034 2003 2786 2293 
Q 2538 2584 2113 2584 
z
M 3366 4563 
L 3366 3988 
Q 3128 4100 2886 4159 
Q 2644 4219 2406 4219 
Q 1781 4219 1451 3797 
Q 1122 3375 1075 2522 
Q 1259 2794 1537 2939 
Q 1816 3084 2150 3084 
Q 2853 3084 3261 2657 
Q 3669 2231 3669 1497 
Q 3669 778 3244 343 
Q 2819 -91 2113 -91 
Q 1303 -91 875 529 
Q 447 1150 447 2328 
Q 447 3434 972 4092 
Q 1497 4750 2381 4750 
Q 2619 4750 2861 4703 
Q 3103 4656 3366 4563 
z
" transform="scale(0.015625)"/>
       </defs>
       <use xlink:href="#DejaVuSans-30"/>
       <use xlink:href="#DejaVuSans-2e" transform="translate(63.623047 0)"/>
       <use xlink:href="#DejaVuSans-36" transform="translate(95.410156 0)"/>
      </g>
     </g>
    </g>
    <g id="xtick_5">
     <g id="line2d_9">
      <path d="M 400.90125 354.958125 
L 400.90125 22.318125 
" clip-path="url(#p7f9bfa9af4)" style="fill: none; stroke: #b0b0b0; stroke-width: 0.8; stroke-linecap: square"/>
     </g>
     <g id="line2d_10">
      <g>
       <use xlink:href="#mfeb181a4a8" x="400.90125" y="354.958125" style="stroke: #000000; stroke-width: 0.8"/>
      </g>
     </g>
     <g id="text_5">
      <!-- 0.8 -->
      <g transform="translate(392.949687 369.556562) scale(0.1 -0.1)">
       <defs>
        <path id="DejaVuSans-38" d="M 2034 2216 
Q 1584 2216 1326 1975 
Q 1069 1734 1069 1313 
Q 1069 891 1326 650 
Q 1584 409 2034 409 
Q 2484 409 2743 651 
Q 3003 894 3003 1313 
Q 3003 1734 2745 1975 
Q 2488 2216 2034 2216 
z
M 1403 2484 
Q 997 2584 770 2862 
Q 544 3141 544 3541 
Q 544 4100 942 4425 
Q 1341 4750 2034 4750 
Q 2731 4750 3128 4425 
Q 3525 4100 3525 3541 
Q 3525 3141 3298 2862 
Q 3072 2584 2669 2484 
Q 3125 2378 3379 2068 
Q 3634 1759 3634 1313 
Q 3634 634 3220 271 
Q 2806 -91 2034 -91 
Q 1263 -91 848 271 
Q 434 634 434 1313 
Q 434 1759 690 2068 
Q 947 2378 1403 2484 
z
M 1172 3481 
Q 1172 3119 1398 2916 
Q 1625 2713 2034 2713 
Q 2441 2713 2670 2916 
Q 2900 3119 2900 3481 
Q 2900 3844 2670 4047 
Q 2441 4250 2034 4250 
Q 1625 4250 1398 4047 
Q 1172 3844 1172 3481 
z
" transform="scale(0.015625)"/>
       </defs>
       <use xlink:href="#DejaVuSans-30"/>
       <use xlink:href="#DejaVuSans-2e" transform="translate(63.623047 0)"/>
       <use xlink:href="#DejaVuSans-38" transform="translate(95.410156 0)"/>
      </g>
     </g>
    </g>
    <g id="xtick_6">
     <g id="line2d_11">
      <path d="M 490.18125 354.958125 
L 490.18125 22.318125 
" clip-path="url(#p7f9bfa9af4)" style="fill: none; stroke: #b0b0b0; stroke-width: 0.8; stroke-linecap: square"/>
     </g>
     <g id="line2d_12">
      <g>
       <use xlink:href="#mfeb181a4a8" x="490.18125" y="354.958125" style="stroke: #000000; stroke-width: 0.8"/>
      </g>
     </g>
     <g id="text_6">
      <!-- 1.0 -->
      <g transform="translate(482.229687 369.556562) scale(0.1 -0.1)">
       <defs>
        <path id="DejaVuSans-31" d="M 794 531 
L 1825 531 
L 1825 4091 
L 703 3866 
L 703 4441 
L 1819 4666 
L 2450 4666 
L 2450 531 
L 3481 531 
L 3481 0 
L 794 0 
L 794 531 
z
" transform="scale(0.015625)"/>
       </defs>
       <use xlink:href="#DejaVuSans-31"/>
       <use xlink:href="#DejaVuSans-2e" transform="translate(63.623047 0)"/>
       <use xlink:href="#DejaVuSans-30" transform="translate(95.410156 0)"/>
      </g>
     </g>
    </g>
    <g id="text_7">
     <!-- False Positive Rate -->
     <g transform="translate(220.514844 383.234687) scale(0.1 -0.1)">
      <defs>
       <path id="DejaVuSans-46" d="M 628 4666 
L 3309 4666 
L 3309 4134 
L 1259 4134 
L 1259 2759 
L 3109 2759 
L 3109 2228 
L 1259 2228 
L 1259 0 
L 628 0 
L 628 4666 
z
" transform="scale(0.015625)"/>
       <path id="DejaVuSans-61" d="M 2194 1759 
Q 1497 1759 1228 1600 
Q 959 1441 959 1056 
Q 959 750 1161 570 
Q 1363 391 1709 391 
Q 2188 391 2477 730 
Q 2766 1069 2766 1631 
L 2766 1759 
L 2194 1759 
z
M 3341 1997 
L 3341 0 
L 2766 0 
L 2766 531 
Q 2569 213 2275 61 
Q 1981 -91 1556 -91 
Q 1019 -91 701 211 
Q 384 513 384 1019 
Q 384 1609 779 1909 
Q 1175 2209 1959 2209 
L 2766 2209 
L 2766 2266 
Q 2766 2663 2505 2880 
Q 2244 3097 1772 3097 
Q 1472 3097 1187 3025 
Q 903 2953 641 2809 
L 641 3341 
Q 956 3463 1253 3523 
Q 1550 3584 1831 3584 
Q 2591 3584 2966 3190 
Q 3341 2797 3341 1997 
z
" transform="scale(0.015625)"/>
       <path id="DejaVuSans-6c" d="M 603 4863 
L 1178 4863 
L 1178 0 
L 603 0 
L 603 4863 
z
" transform="scale(0.015625)"/>
       <path id="DejaVuSans-73" d="M 2834 3397 
L 2834 2853 
Q 2591 2978 2328 3040 
Q 2066 3103 1784 3103 
Q 1356 3103 1142 2972 
Q 928 2841 928 2578 
Q 928 2378 1081 2264 
Q 1234 2150 1697 2047 
L 1894 2003 
Q 2506 1872 2764 1633 
Q 3022 1394 3022 966 
Q 3022 478 2636 193 
Q 2250 -91 1575 -91 
Q 1294 -91 989 -36 
Q 684 19 347 128 
L 347 722 
Q 666 556 975 473 
Q 1284 391 1588 391 
Q 1994 391 2212 530 
Q 2431 669 2431 922 
Q 2431 1156 2273 1281 
Q 2116 1406 1581 1522 
L 1381 1569 
Q 847 1681 609 1914 
Q 372 2147 372 2553 
Q 372 3047 722 3315 
Q 1072 3584 1716 3584 
Q 2034 3584 2315 3537 
Q 2597 3491 2834 3397 
z
" transform="scale(0.015625)"/>
       <path id="DejaVuSans-65" d="M 3597 1894 
L 3597 1613 
L 953 1613 
Q 991 1019 1311 708 
Q 1631 397 2203 397 
Q 2534 397 2845 478 
Q 3156 559 3463 722 
L 3463 178 
Q 3153 47 2828 -22 
Q 2503 -91 2169 -91 
Q 1331 -91 842 396 
Q 353 884 353 1716 
Q 353 2575 817 3079 
Q 1281 3584 2069 3584 
Q 2775 3584 3186 3129 
Q 3597 2675 3597 1894 
z
M 3022 2063 
Q 3016 2534 2758 2815 
Q 2500 3097 2075 3097 
Q 1594 3097 1305 2825 
Q 1016 2553 972 2059 
L 3022 2063 
z
" transform="scale(0.015625)"/>
       <path id="DejaVuSans-20" transform="scale(0.015625)"/>
       <path id="DejaVuSans-50" d="M 1259 4147 
L 1259 2394 
L 2053 2394 
Q 2494 2394 2734 2622 
Q 2975 2850 2975 3272 
Q 2975 3691 2734 3919 
Q 2494 4147 2053 4147 
L 1259 4147 
z
M 628 4666 
L 2053 4666 
Q 2838 4666 3239 4311 
Q 3641 3956 3641 3272 
Q 3641 2581 3239 2228 
Q 2838 1875 2053 1875 
L 1259 1875 
L 1259 0 
L 628 0 
L 628 4666 
z
" transform="scale(0.015625)"/>
       <path id="DejaVuSans-6f" d="M 1959 3097 
Q 1497 3097 1228 2736 
Q 959 2375 959 1747 
Q 959 1119 1226 758 
Q 1494 397 1959 397 
Q 2419 397 2687 759 
Q 2956 1122 2956 1747 
Q 2956 2369 2687 2733 
Q 2419 3097 1959 3097 
z
M 1959 3584 
Q 2709 3584 3137 3096 
Q 3566 2609 3566 1747 
Q 3566 888 3137 398 
Q 2709 -91 1959 -91 
Q 1206 -91 779 398 
Q 353 888 353 1747 
Q 353 2609 779 3096 
Q 1206 3584 1959 3584 
z
" transform="scale(0.015625)"/>
       <path id="DejaVuSans-69" d="M 603 3500 
L 1178 3500 
L 1178 0 
L 603 0 
L 603 3500 
z
M 603 4863 
L 1178 4863 
L 1178 4134 
L 603 4134 
L 603 4863 
z
" transform="scale(0.015625)"/>
       <path id="DejaVuSans-74" d="M 1172 4494 
L 1172 3500 
L 2356 3500 
L 2356 3053 
L 1172 3053 
L 1172 1153 
Q 1172 725 1289 603 
Q 1406 481 1766 481 
L 2356 481 
L 2356 0 
L 1766 0 
Q 1100 0 847 248 
Q 594 497 594 1153 
L 594 3053 
L 172 3053 
L 172 3500 
L 594 3500 
L 594 4494 
L 1172 4494 
z
" transform="scale(0.015625)"/>
       <path id="DejaVuSans-76" d="M 191 3500 
L 800 3500 
L 1894 563 
L 2988 3500 
L 3597 3500 
L 2284 0 
L 1503 0 
L 191 3500 
z
" transform="scale(0.015625)"/>
       <path id="DejaVuSans-52" d="M 2841 2188 
Q 3044 2119 3236 1894 
Q 3428 1669 3622 1275 
L 4263 0 
L 3584 0 
L 2988 1197 
Q 2756 1666 2539 1819 
Q 2322 1972 1947 1972 
L 1259 1972 
L 1259 0 
L 628 0 
L 628 4666 
L 2053 4666 
Q 2853 4666 3247 4331 
Q 3641 3997 3641 3322 
Q 3641 2881 3436 2590 
Q 3231 2300 2841 2188 
z
M 1259 4147 
L 1259 2491 
L 2053 2491 
Q 2509 2491 2742 2702 
Q 2975 2913 2975 3322 
Q 2975 3731 2742 3939 
Q 2509 4147 2053 4147 
L 1259 4147 
z
" transform="scale(0.015625)"/>
      </defs>
      <use xlink:href="#DejaVuSans-46"/>
      <use xlink:href="#DejaVuSans-61" transform="translate(48.394531 0)"/>
      <use xlink:href="#DejaVuSans-6c" transform="translate(109.673828 0)"/>
      <use xlink:href="#DejaVuSans-73" transform="translate(137.457031 0)"/>
      <use xlink:href="#DejaVuSans-65" transform="translate(189.556641 0)"/>
      <use xlink:href="#DejaVuSans-20" transform="translate(251.080078 0)"/>
      <use xlink:href="#DejaVuSans-50" transform="translate(282.867188 0)"/>
      <use xlink:href="#DejaVuSans-6f" transform="translate(339.544922 0)"/>
      <use xlink:href="#DejaVuSans-73" transform="translate(400.726562 0)"/>
      <use xlink:href="#DejaVuSans-69" transform="translate(452.826172 0)"/>
      <use xlink:href="#DejaVuSans-74" transform="translate(480.609375 0)"/>
      <use xlink:href="#DejaVuSans-69" transform="translate(519.818359 0)"/>
      <use xlink:href="#DejaVuSans-76" transform="translate(547.601562 0)"/>
      <use xlink:href="#DejaVuSans-65" transform="translate(606.78125 0)"/>
      <use xlink:href="#DejaVuSans-20" transform="translate(668.304688 0)"/>
      <use xlink:href="#DejaVuSans-52" transform="translate(700.091797 0)"/>
      <use xlink:href="#DejaVuSans-61" transform="translate(767.324219 0)"/>
      <use xlink:href="#DejaVuSans-74" transform="translate(828.603516 0)"/>
      <use xlink:href="#DejaVuSans-65" transform="translate(867.8125 0)"/>
     </g>
    </g>
   </g>
   <g id="matplotlib.axis_2">
    <g id="ytick_1">
     <g id="line2d_13">
      <path d="M 43.78125 354.958125 
L 490.18125 354.958125 
" clip-path="url(#p7f9bfa9af4)" style="fill: none; stroke: #b0b0b0; stroke-width: 0.8; stroke-linecap: square"/>
     </g>
     <g id="line2d_14">
      <defs>
       <path id="ma056496cea" d="M 0 0 
L -3.5 0 
" style="stroke: #000000; stroke-width: 0.8"/>
      </defs>
      <g>
       <use xlink:href="#ma056496cea" x="43.78125" y="354.958125" style="stroke: #000000; stroke-width: 0.8"/>
      </g>
     </g>
     <g id="text_8">
      <!-- 0.0 -->
      <g transform="translate(20.878125 358.757344) scale(0.1 -0.1)">
       <use xlink:href="#DejaVuSans-30"/>
       <use xlink:href="#DejaVuSans-2e" transform="translate(63.623047 0)"/>
       <use xlink:href="#DejaVuSans-30" transform="translate(95.410156 0)"/>
      </g>
     </g>
    </g>
    <g id="ytick_2">
     <g id="line2d_15">
      <path d="M 43.78125 291.598125 
L 490.18125 291.598125 
" clip-path="url(#p7f9bfa9af4)" style="fill: none; stroke: #b0b0b0; stroke-width: 0.8; stroke-linecap: square"/>
     </g>
     <g id="line2d_16">
      <g>
       <use xlink:href="#ma056496cea" x="43.78125" y="291.598125" style="stroke: #000000; stroke-width: 0.8"/>
      </g>
     </g>
     <g id="text_9">
      <!-- 0.2 -->
      <g transform="translate(20.878125 295.397344) scale(0.1 -0.1)">
       <use xlink:href="#DejaVuSans-30"/>
       <use xlink:href="#DejaVuSans-2e" transform="translate(63.623047 0)"/>
       <use xlink:href="#DejaVuSans-32" transform="translate(95.410156 0)"/>
      </g>
     </g>
    </g>
    <g id="ytick_3">
     <g id="line2d_17">
      <path d="M 43.78125 228.238125 
L 490.18125 228.238125 
" clip-path="url(#p7f9bfa9af4)" style="fill: none; stroke: #b0b0b0; stroke-width: 0.8; stroke-linecap: square"/>
     </g>
     <g id="line2d_18">
      <g>
       <use xlink:href="#ma056496cea" x="43.78125" y="228.238125" style="stroke: #000000; stroke-width: 0.8"/>
      </g>
     </g>
     <g id="text_10">
      <!-- 0.4 -->
      <g transform="translate(20.878125 232.037344) scale(0.1 -0.1)">
       <use xlink:href="#DejaVuSans-30"/>
       <use xlink:href="#DejaVuSans-2e" transform="translate(63.623047 0)"/>
       <use xlink:href="#DejaVuSans-34" transform="translate(95.410156 0)"/>
      </g>
     </g>
    </g>
    <g id="ytick_4">
     <g id="line2d_19">
      <path d="M 43.78125 164.878125 
L 490.18125 164.878125 
" clip-path="url(#p7f9bfa9af4)" style="fill: none; stroke: #b0b0b0; stroke-width: 0.8; stroke-linecap: square"/>
     </g>
     <g id="line2d_20">
      <g>
       <use xlink:href="#ma056496cea" x="43.78125" y="164.878125" style="stroke: #000000; stroke-width: 0.8"/>
      </g>
     </g>
     <g id="text_11">
      <!-- 0.6 -->
      <g transform="translate(20.878125 168.677344) scale(0.1 -0.1)">
       <use xlink:href="#DejaVuSans-30"/>
       <use xlink:href="#DejaVuSans-2e" transform="translate(63.623047 0)"/>
       <use xlink:href="#DejaVuSans-36" transform="translate(95.410156 0)"/>
      </g>
     </g>
    </g>
    <g id="ytick_5">
     <g id="line2d_21">
      <path d="M 43.78125 101.518125 
L 490.18125 101.518125 
" clip-path="url(#p7f9bfa9af4)" style="fill: none; stroke: #b0b0b0; stroke-width: 0.8; stroke-linecap: square"/>
     </g>
     <g id="line2d_22">
      <g>
       <use xlink:href="#ma056496cea" x="43.78125" y="101.518125" style="stroke: #000000; stroke-width: 0.8"/>
      </g>
     </g>
     <g id="text_12">
      <!-- 0.8 -->
      <g transform="translate(20.878125 105.317344) scale(0.1 -0.1)">
       <use xlink:href="#DejaVuSans-30"/>
       <use xlink:href="#DejaVuSans-2e" transform="translate(63.623047 0)"/>
       <use xlink:href="#DejaVuSans-38" transform="translate(95.410156 0)"/>
      </g>
     </g>
    </g>
    <g id="ytick_6">
     <g id="line2d_23">
      <path d="M 43.78125 38.158125 
L 490.18125 38.158125 
" clip-path="url(#p7f9bfa9af4)" style="fill: none; stroke: #b0b0b0; stroke-width: 0.8; stroke-linecap: square"/>
     </g>
     <g id="line2d_24">
      <g>
       <use xlink:href="#ma056496cea" x="43.78125" y="38.158125" style="stroke: #000000; stroke-width: 0.8"/>
      </g>
     </g>
     <g id="text_13">
      <!-- 1.0 -->
      <g transform="translate(20.878125 41.957344) scale(0.1 -0.1)">
       <use xlink:href="#DejaVuSans-31"/>
       <use xlink:href="#DejaVuSans-2e" transform="translate(63.623047 0)"/>
       <use xlink:href="#DejaVuSans-30" transform="translate(95.410156 0)"/>
      </g>
     </g>
    </g>
    <g id="text_14">
     <!-- True Positive Rate -->
     <g transform="translate(14.798438 233.167812) rotate(-90) scale(0.1 -0.1)">
      <defs>
       <path id="DejaVuSans-54" d="M -19 4666 
L 3928 4666 
L 3928 4134 
L 2272 4134 
L 2272 0 
L 1638 0 
L 1638 4134 
L -19 4134 
L -19 4666 
z
" transform="scale(0.015625)"/>
       <path id="DejaVuSans-72" d="M 2631 2963 
Q 2534 3019 2420 3045 
Q 2306 3072 2169 3072 
Q 1681 3072 1420 2755 
Q 1159 2438 1159 1844 
L 1159 0 
L 581 0 
L 581 3500 
L 1159 3500 
L 1159 2956 
Q 1341 3275 1631 3429 
Q 1922 3584 2338 3584 
Q 2397 3584 2469 3576 
Q 2541 3569 2628 3553 
L 2631 2963 
z
" transform="scale(0.015625)"/>
       <path id="DejaVuSans-75" d="M 544 1381 
L 544 3500 
L 1119 3500 
L 1119 1403 
Q 1119 906 1312 657 
Q 1506 409 1894 409 
Q 2359 409 2629 706 
Q 2900 1003 2900 1516 
L 2900 3500 
L 3475 3500 
L 3475 0 
L 2900 0 
L 2900 538 
Q 2691 219 2414 64 
Q 2138 -91 1772 -91 
Q 1169 -91 856 284 
Q 544 659 544 1381 
z
M 1991 3584 
L 1991 3584 
z
" transform="scale(0.015625)"/>
      </defs>
      <use xlink:href="#DejaVuSans-54"/>
      <use xlink:href="#DejaVuSans-72" transform="translate(46.333984 0)"/>
      <use xlink:href="#DejaVuSans-75" transform="translate(87.447266 0)"/>
      <use xlink:href="#DejaVuSans-65" transform="translate(150.826172 0)"/>
      <use xlink:href="#DejaVuSans-20" transform="translate(212.349609 0)"/>
      <use xlink:href="#DejaVuSans-50" transform="translate(244.136719 0)"/>
      <use xlink:href="#DejaVuSans-6f" transform="translate(300.814453 0)"/>
      <use xlink:href="#DejaVuSans-73" transform="translate(361.996094 0)"/>
      <use xlink:href="#DejaVuSans-69" transform="translate(414.095703 0)"/>
      <use xlink:href="#DejaVuSans-74" transform="translate(441.878906 0)"/>
      <use xlink:href="#DejaVuSans-69" transform="translate(481.087891 0)"/>
      <use xlink:href="#DejaVuSans-76" transform="translate(508.871094 0)"/>
      <use xlink:href="#DejaVuSans-65" transform="translate(568.050781 0)"/>
      <use xlink:href="#DejaVuSans-20" transform="translate(629.574219 0)"/>
      <use xlink:href="#DejaVuSans-52" transform="translate(661.361328 0)"/>
      <use xlink:href="#DejaVuSans-61" transform="translate(728.59375 0)"/>
      <use xlink:href="#DejaVuSans-74" transform="translate(789.873047 0)"/>
      <use xlink:href="#DejaVuSans-65" transform="translate(829.082031 0)"/>
     </g>
    </g>
   </g>
   <g id="line2d_25">
    <path d="M 43.78125 354.958125 
L 43.891236 337.870746 
L 43.89432 337.828028 
L 44.005334 332.27463 
L 44.008418 332.189193 
L 44.119432 327.31929 
L 44.12046 327.31929 
L 44.227362 321.979484 
L 44.23353 321.894047 
L 44.344544 316.895989 
L 44.347627 316.895989 
L 44.458642 312.709581 
L 44.460697 312.666863 
L 44.571711 307.79696 
L 44.576851 307.711523 
L 44.687865 303.140649 
L 44.694033 303.097931 
L 44.805047 299.723174 
L 44.814298 299.680455 
L 44.925312 296.861038 
L 44.934563 296.775601 
L 45.045577 293.657154 
L 45.050717 293.571717 
L 45.159675 290.154242 
L 45.162759 290.154242 
L 45.273773 286.822203 
L 45.276857 286.822203 
L 45.387871 283.447445 
L 45.391982 283.447445 
L 45.502996 280.158125 
L 45.514303 280.115407 
L 45.623262 277.894047 
L 45.683908 276.911523 
L 45.793894 273.793076 
L 45.803146 273.70764 
L 45.90902 270.930941 
L 45.911076 270.930941 
L 46.281123 261.490164 
L 46.297569 261.404727 
L 46.407556 259.140649 
L 46.410639 259.055212 
L 46.520626 256.492106 
L 46.527821 256.449387 
L 46.638835 254.313465 
L 46.642947 254.228028 
L 46.753961 251.237737 
L 46.754989 251.237737 
L 46.866003 249.443562 
L 46.87731 249.358125 
L 46.987296 247.478513 
L 46.991408 247.393076 
L 47.096254 245.64162 
L 47.105505 245.64162 
L 47.216519 243.762008 
L 47.219603 243.762008 
L 47.328561 241.626086 
L 47.336785 241.540649 
L 47.447799 239.87463 
L 47.453966 239.789193 
L 47.558813 238.336766 
L 47.579371 238.251329 
L 47.690385 236.713465 
L 47.693469 236.628028 
L 47.803455 234.449387 
L 47.824013 234.36395 
L 47.926804 232.014436 
L 47.942223 231.928999 
L 48.053237 230.134824 
L 48.070711 230.049387 
L 48.176586 228.554242 
L 48.202283 228.511523 
L 48.304046 227.22997 
L 48.324605 227.144533 
L 48.435619 225.435795 
L 48.447954 225.350358 
L 48.558968 223.855212 
L 48.574386 223.769775 
L 48.6854 222.061038 
L 48.69054 221.975601 
L 48.79847 220.864921 
L 48.812861 220.779484 
L 48.914624 218.857154 
L 48.930042 218.771717 
L 49.041057 217.105698 
L 49.04928 217.020261 
L 49.159266 215.482397 
L 49.166461 215.39696 
L 49.27542 214.02997 
L 49.282615 213.987251 
L 49.392601 212.748416 
L 49.400824 212.662979 
L 49.510811 211.765892 
L 49.52109 211.680455 
L 49.630048 210.057154 
L 49.635188 210.014436 
L 49.745174 208.690164 
L 49.757509 208.604727 
L 49.868523 207.451329 
L 49.87469 207.40861 
L 49.979537 205.742591 
L 49.998039 205.657154 
L 50.102886 204.461038 
L 50.111109 204.375601 
L 50.218012 203.179484 
L 50.245765 203.094047 
L 50.353695 201.385309 
L 50.355751 201.385309 
L 50.374254 201.299873 
L 50.48424 199.975601 
L 50.499658 199.890164 
L 50.607589 199.121232 
L 50.614784 199.035795 
L 50.712435 197.967834 
L 50.731966 197.882397 
L 50.840924 195.917348 
L 50.850175 195.831911 
L 50.960161 194.76395 
L 50.966329 194.678513 
L 51.072203 193.439678 
L 51.08351 193.354242 
L 51.193496 192.542591 
L 51.206859 192.457154 
L 51.317873 191.688222 
L 51.324041 191.602785 
L 51.428887 190.193076 
L 51.44225 190.10764 
L 51.545041 188.527057 
L 51.557376 188.44162 
L 51.666334 187.245504 
L 51.679697 187.160067 
L 51.787627 185.280455 
L 51.817437 185.195018 
L 51.926395 183.614436 
L 51.957232 183.528999 
L 52.068246 182.418319 
L 52.085721 182.332882 
L 52.188512 181.222203 
L 52.214209 181.179484 
L 52.319056 180.19696 
L 52.333447 180.111523 
L 52.442405 178.616377 
L 52.47427 178.530941 
L 52.580145 177.377542 
L 52.593508 177.334824 
L 52.704522 176.181426 
L 52.735359 176.095989 
L 52.840206 174.728999 
L 52.859736 174.643562 
L 52.967666 173.020261 
L 52.977945 172.934824 
L 53.080736 171.866863 
L 53.113629 171.781426 
L 53.223615 170.585309 
L 53.238006 170.499873 
L 53.346964 169.346475 
L 53.359299 169.261038 
L 53.461062 168.321232 
L 53.479564 168.235795 
L 53.588523 166.612494 
L 53.608053 166.527057 
L 53.718039 165.373659 
L 53.73243 165.288222 
L 53.843444 163.96395 
L 53.856807 163.878513 
L 53.966793 162.938708 
L 53.982212 162.853271 
L 54.092198 162.04162 
L 54.105561 161.956183 
L 54.205268 161.016377 
L 54.238161 160.930941 
L 54.349175 160.033853 
L 54.385152 159.948416 
L 54.486915 159.136766 
L 54.503361 159.051329 
L 54.611291 157.812494 
L 54.630822 157.727057 
L 54.732585 156.915407 
L 54.765478 156.82997 
L 54.84771 155.804727 
L 54.900134 155.71929 
L 55.006008 154.736766 
L 55.023483 154.651329 
L 55.134497 153.626086 
L 55.144776 153.540649 
L 55.25065 152.387251 
L 55.259902 152.301814 
L 55.364748 151.447445 
L 55.398669 151.362008 
L 55.5066 150.721232 
L 55.546688 150.635795 
L 55.656674 149.9523 
L 55.687511 149.866863 
L 55.798525 148.628028 
L 55.808805 148.542591 
L 55.917763 147.303756 
L 55.935237 147.218319 
L 56.041112 146.662979 
L 56.064754 146.577542 
L 56.17474 145.509581 
L 56.200438 145.424144 
L 56.310424 144.569775 
L 56.328926 144.484339 
L 56.43994 143.416377 
L 56.453303 143.330941 
L 56.551982 142.476572 
L 56.588987 142.433853 
L 56.700001 141.451329 
L 56.71028 141.40861 
L 56.819238 140.169775 
L 56.844936 140.084339 
L 56.95595 139.016377 
L 57.003234 138.930941 
L 57.11322 137.820261 
L 57.125555 137.734824 
L 57.233485 136.837737 
L 57.251988 136.7523 
L 57.3445 136.325115 
L 57.368141 136.282397 
L 57.4771 135.171717 
L 57.515132 135.08628 
L 57.626146 134.360067 
L 57.656984 134.27463 
L 57.765942 133.292106 
L 57.782388 133.206669 
L 57.884151 132.053271 
L 57.920128 131.967834 
L 58.019835 130.942591 
L 58.040393 130.899873 
L 58.151408 130.002785 
L 58.168882 129.917348 
L 58.265505 129.191135 
L 58.301482 129.105698 
L 58.403245 128.294047 
L 58.43511 128.251329 
L 58.543041 127.525115 
L 58.558459 127.439678 
L 58.669473 126.628028 
L 58.691059 126.542591 
L 58.801046 125.773659 
L 58.819548 125.688222 
L 58.928506 125.090164 
L 58.969622 125.004727 
L 59.078581 124.36395 
L 59.090916 124.278513 
L 59.20193 123.509581 
L 59.218376 123.424144 
L 59.328362 122.655212 
L 59.353032 122.569775 
L 59.455823 121.971717 
L 59.4918 121.88628 
L 59.598702 121.160067 
L 59.62954 121.07463 
L 59.740554 120.220261 
L 59.774475 120.134824 
L 59.874182 119.1523 
L 59.924549 119.066863 
L 60.035563 118.04162 
L 60.057149 117.956183 
L 60.158912 117.315407 
L 60.20928 117.22997 
L 60.319266 116.589193 
L 60.352159 116.503756 
L 60.455978 115.56395 
L 60.47962 115.478513 
L 60.590634 114.7523 
L 60.603997 114.666863 
L 60.713983 114.239678 
L 60.733513 114.154242 
L 60.841443 113.428028 
L 60.85789 113.342591 
L 60.96582 112.82997 
L 60.99563 112.744533 
L 61.106644 112.061038 
L 61.116923 112.018319 
L 61.223825 111.633853 
L 61.25569 111.548416 
L 61.360537 110.864921 
L 61.391374 110.779484 
L 61.499305 110.138708 
L 61.530142 110.053271 
L 61.631905 109.455212 
L 61.646296 109.369775 
L 61.748059 108.515407 
L 61.774784 108.42997 
L 61.885798 107.87463 
L 61.910468 107.789193 
L 62.021482 106.934824 
L 62.063626 106.849387 
L 62.166417 106.20861 
L 62.216785 106.123174 
L 62.318548 105.439678 
L 62.346301 105.354242 
L 62.448064 104.713465 
L 62.479929 104.628028 
L 62.589915 104.200843 
L 62.613557 104.115407 
L 62.723543 103.517348 
L 62.755409 103.47463 
L 62.862311 102.705698 
L 62.876702 102.662979 
L 62.979493 101.723174 
L 63.011358 101.637737 
L 63.09359 101.295989 
L 63.119288 101.295989 
L 63.13779 101.210552 
L 63.242637 100.697931 
L 63.29506 100.612494 
L 63.401963 100.142591 
L 63.451303 100.057154 
L 63.558205 99.587251 
L 63.591098 99.501814 
L 63.670247 99.117348 
L 63.723698 99.031911 
L 63.829573 98.562008 
L 63.85527 98.476572 
L 63.964229 97.835795 
L 63.987871 97.793076 
L 64.085522 97.451329 
L 64.117387 97.365892 
L 64.212983 97.109581 
L 64.275685 97.024144 
L 64.375392 96.511523 
L 64.410341 96.426086 
L 64.507992 95.956183 
L 64.573778 95.870746 
L 64.682737 95.48628 
L 64.707406 95.443562 
L 64.816365 94.717348 
L 64.847202 94.631911 
L 64.999332 93.649387 
L 65.031197 93.56395 
L 65.125765 93.179484 
L 65.161742 93.094047 
L 65.256309 92.581426 
L 65.300509 92.495989 
L 65.407412 91.812494 
L 65.438249 91.727057 
L 65.530761 91.08628 
L 65.562626 91.000843 
L 65.641775 90.616377 
L 65.718868 90.530941 
L 65.801101 90.189193 
L 65.870999 90.103756 
L 65.94398 89.847445 
L 66.001543 89.762008 
L 66.10125 89.377542 
L 66.174231 89.292106 
L 66.282162 88.694047 
L 66.296553 88.60861 
L 66.406539 87.882397 
L 66.418874 87.839678 
L 66.524748 87.24162 
L 66.556613 87.156183 
L 66.665572 86.472688 
L 66.699493 86.387251 
L 66.7992 86.130941 
L 66.840316 86.045504 
L 66.945163 85.661038 
L 66.979084 85.575601 
L 67.078791 85.276572 
L 67.140465 85.191135 
L 67.24634 84.76395 
L 67.262786 84.678513 
L 67.370717 84.123174 
L 67.383052 84.080455 
L 67.489954 83.653271 
L 67.521819 83.567834 
L 67.625638 83.055212 
L 67.62975 83.055212 
L 67.652364 82.969775 
L 67.763378 82.371717 
L 67.822996 82.28628 
L 67.879531 81.901814 
L 67.986434 81.816377 
L 68.067639 81.431911 
L 68.119034 81.389193 
L 68.230048 80.833853 
L 68.259857 80.791135 
L 68.363676 80.492106 
L 68.420211 80.406669 
L 68.511695 79.936766 
L 68.553839 79.851329 
L 68.654574 79.338708 
L 68.7255 79.253271 
L 68.830346 78.868805 
L 68.911551 78.783368 
L 69.021537 78.228028 
L 69.050319 78.142591 
L 69.151054 77.672688 
L 69.190114 77.587251 
L 69.282626 77.245504 
L 69.367942 77.160067 
L 69.454287 76.690164 
L 69.488208 76.604727 
L 69.568385 76.220261 
L 69.632115 76.134824 
L 69.716403 75.793076 
L 69.773966 75.70764 
L 69.880869 75.280455 
L 69.918901 75.195018 
L 70.005246 74.853271 
L 70.029915 74.853271 
L 70.096729 74.767834 
L 70.19952 74.127057 
L 70.262223 74.04162 
L 70.371181 73.785309 
L 70.418465 73.699873 
L 70.525367 73.571717 
L 70.562372 73.48628 
L 70.625074 73.187251 
L 70.696 73.101814 
L 70.785428 72.845504 
L 70.909805 72.760067 
L 71.01054 72.375601 
L 71.124638 72.290164 
L 71.208926 71.948416 
L 71.303494 71.862979 
L 71.404229 71.521232 
L 71.426843 71.435795 
L 71.530661 71.094047 
L 71.553275 71.00861 
L 71.651955 70.7523 
L 71.701294 70.666863 
L 71.808197 70.410552 
L 71.866787 70.325115 
L 71.962383 70.068805 
L 72.084704 69.983368 
L 72.182355 69.769775 
L 72.265616 69.684339 
L 72.342709 69.428028 
L 72.430081 69.342591 
L 72.530816 69.043562 
L 72.61716 68.958125 
L 72.724063 68.616377 
L 72.738454 68.530941 
L 72.840217 68.231911 
L 72.900863 68.146475 
L 72.98104 67.676572 
L 73.039631 67.591135 
L 73.119808 67.505698 
L 73.127003 67.505698 
L 73.209236 67.420261 
L 73.318194 67.035795 
L 73.373701 66.950358 
L 73.47238 66.651329 
L 73.525831 66.565892 
L 73.625538 66.309581 
L 73.67899 66.224144 
L 73.781781 65.925115 
L 73.815702 65.839678 
L 73.918492 65.540649 
L 73.997641 65.455212 
L 74.103516 64.857154 
L 74.186776 64.771717 
L 74.290595 64.472688 
L 74.355353 64.387251 
L 74.443753 64.173659 
L 74.535237 64.088222 
L 74.645223 63.960067 
L 74.758293 63.87463 
L 74.845666 63.490164 
L 74.97621 63.404727 
L 75.062554 63.191135 
L 75.132452 63.105698 
L 75.214685 62.977542 
L 75.307196 62.892106 
L 75.402792 62.50764 
L 75.460355 62.422203 
L 75.562118 62.037737 
L 75.679299 61.9523 
L 75.78209 61.695989 
L 75.841709 61.610552 
L 75.937304 61.354242 
L 76.060653 61.268805 
L 76.159332 60.969775 
L 76.211756 60.884339 
L 76.230258 60.756183 
L 76.255956 60.756183 
L 76.370054 60.670746 
L 76.461537 60.371717 
L 76.476956 60.371717 
L 76.521156 60.328999 
L 76.570496 60.072688 
L 76.694873 59.987251 
L 76.785328 59.773659 
L 76.885036 59.688222 
L 76.955961 59.560067 
L 77.108092 59.47463 
L 77.183129 59.346475 
L 77.296199 59.261038 
L 77.327036 59.175601 
L 77.353762 59.175601 
L 77.41852 59.090164 
L 77.505892 58.833853 
L 77.585041 58.748416 
L 77.68886 58.492106 
L 77.706334 58.406669 
L 77.759786 58.150358 
L 77.876967 58.064921 
L 77.986953 57.723174 
L 78.126749 57.637737 
L 78.210009 57.424144 
L 78.285047 57.338708 
L 78.361112 56.99696 
L 78.403256 56.99696 
L 78.410451 56.826086 
L 78.529689 56.740649 
L 78.591363 56.527057 
L 78.707517 56.44162 
L 78.817503 56.185309 
L 78.921322 56.099873 
L 78.993275 55.928999 
L 79.082703 55.843562 
L 79.190634 55.672688 
L 79.252308 55.587251 
L 79.302676 55.416377 
L 79.415746 55.330941 
L 79.519564 55.031911 
L 79.525732 55.031911 
L 79.554513 54.946475 
L 79.618244 54.775601 
L 79.709727 54.690164 
L 79.778597 54.562008 
L 79.90503 54.476572 
L 79.985207 54.220261 
L 80.102388 54.134824 
L 80.102388 54.092106 
L 80.240128 54.006669 
L 80.339835 53.878513 
L 80.4159 53.793076 
L 80.513552 53.622203 
L 80.590645 53.536766 
L 80.590645 53.494047 
L 80.752026 53.40861 
L 80.806506 53.237737 
L 80.96172 53.1523 
L 81.035729 52.853271 
L 81.257757 52.767834 
L 81.296818 52.59696 
L 81.373911 52.511523 
L 81.432502 52.426086 
L 81.592855 52.340649 
L 81.70387 52.127057 
L 81.936177 52.04162 
L 82.0328 51.785309 
L 82.157177 51.699873 
L 82.247633 51.48628 
L 82.336033 51.400843 
L 82.433684 51.101814 
L 82.466577 51.016377 
L 82.566285 50.760067 
L 82.733834 50.67463 
L 82.733834 50.631911 
L 83.027815 50.546475 
L 83.12855 50.418319 
L 83.220034 50.332882 
L 83.314602 50.247445 
L 83.435895 50.162008 
L 83.525323 50.076572 
L 83.642504 49.991135 
L 83.745295 49.862979 
L 83.781272 49.777542 
L 83.802858 49.606669 
L 84.010496 49.521232 
L 84.010496 49.478513 
L 84.092728 49.478513 
L 84.283919 49.393076 
L 84.372319 49.222203 
L 84.426798 49.136766 
L 84.484361 48.965892 
L 84.695083 48.880455 
L 84.772176 48.666863 
L 84.975702 48.581426 
L 85.058962 48.453271 
L 85.177172 48.367834 
L 85.180255 48.239678 
L 85.370418 48.154242 
L 85.417702 48.026086 
L 85.481432 48.026086 
L 85.550302 47.983368 
L 85.655149 47.727057 
L 85.724019 47.64162 
L 85.724019 47.598902 
L 85.825782 47.598902 
L 86.065284 47.513465 
L 86.135182 47.428028 
L 86.331513 47.342591 
L 86.331513 47.299873 
L 86.487755 47.214436 
L 86.499062 47.08628 
L 86.516536 47.08628 
L 86.764262 47.000843 
L 86.847522 46.82997 
L 86.974983 46.744533 
L 87.014044 46.659096 
L 87.174397 46.573659 
L 87.216542 46.445504 
L 87.272049 46.445504 
L 87.374839 46.360067 
L 87.414928 46.27463 
L 87.799366 46.189193 
L 87.874403 46.061038 
L 88.045036 45.975601 
L 88.151938 45.762008 
L 88.307152 45.676572 
L 88.394524 45.591135 
L 88.653557 45.505698 
L 88.728595 45.420261 
L 89.037995 45.334824 
L 89.122283 45.16395 
L 89.306279 45.078513 
L 89.306279 45.035795 
L 89.565312 44.950358 
L 89.565312 44.90764 
L 89.619791 44.90764 
L 89.90555 44.822203 
L 89.976475 44.736766 
L 90.183085 44.651329 
L 90.243731 44.523174 
L 90.451369 44.437737 
L 90.451369 44.395018 
L 90.558271 44.395018 
L 90.669285 44.309581 
L 90.669285 44.266863 
L 90.731988 44.266863 
L 91.117453 44.181426 
L 91.216133 44.010552 
L 91.325091 43.925115 
L 91.398072 43.79696 
L 91.593375 43.711523 
L 91.677663 43.626086 
L 92.018929 43.540649 
L 92.018929 43.497931 
L 92.603809 43.412494 
L 92.698376 43.24162 
L 93.077674 43.156183 
L 93.161963 43.028028 
L 93.335679 42.942591 
L 93.351098 42.857154 
L 93.635829 42.771717 
L 93.709838 42.68628 
L 94.164173 42.600843 
L 94.164173 42.558125 
L 94.487965 42.472688 
L 94.487965 42.42997 
L 94.553751 42.42997 
L 95.065649 42.344533 
L 95.156105 42.216377 
L 95.45317 42.130941 
L 95.45317 42.088222 
L 95.860222 42.002785 
L 95.860222 41.960067 
L 96.346423 41.87463 
L 96.360813 41.746475 
L 96.766837 41.661038 
L 96.811037 41.575601 
L 97.093712 41.490164 
L 97.16361 41.362008 
L 97.196503 41.362008 
L 97.715597 41.276572 
L 97.76802 41.191135 
L 97.774187 41.191135 
L 98.00855 41.105698 
L 98.050695 40.977542 
L 98.684914 40.892106 
L 98.684914 40.849387 
L 99.634701 40.76395 
L 99.655259 40.678513 
L 99.947185 40.593076 
L 99.981106 40.464921 
L 100.113706 40.379484 
L 100.113706 40.336766 
L 100.169214 40.336766 
L 100.534121 40.251329 
L 100.534121 40.20861 
L 100.594768 40.20861 
L 101.098443 40.123174 
L 101.179647 39.995018 
L 101.209457 39.995018 
L 101.565113 39.909581 
L 101.565113 39.866863 
L 101.949551 39.781426 
L 101.9845 39.695989 
L 102.453226 39.610552 
L 102.453226 39.567834 
L 102.561156 39.567834 
L 103.019603 39.482397 
L 103.019603 39.439678 
L 104.847224 39.354242 
L 104.88834 39.268805 
L 105.659272 39.183368 
L 105.659272 39.140649 
L 105.676746 39.140649 
L 106.677929 39.055212 
L 106.677929 39.012494 
L 107.063394 38.927057 
L 107.162073 38.84162 
L 110.353729 38.756183 
L 110.353729 38.713465 
L 110.37737 38.713465 
L 111.443311 38.628028 
L 111.443311 38.585309 
L 113.31616 38.499873 
L 113.31616 38.457154 
L 113.356249 38.457154 
L 114.322482 38.371717 
L 114.322482 38.328999 
L 119.523698 38.243562 
L 119.523698 38.200843 
L 490.18125 38.158125 
L 490.18125 38.158125 
" clip-path="url(#p7f9bfa9af4)" style="fill: none; stroke: #ff8c00; stroke-width: 2; stroke-linecap: square"/>
   </g>
   <g id="line2d_26">
    <path d="M 43.78125 354.958125 
L 490.18125 38.158125 
" clip-path="url(#p7f9bfa9af4)" style="fill: none; stroke-dasharray: 7.4,3.2; stroke-dashoffset: 0; stroke: #000080; stroke-width: 2"/>
   </g>
   <g id="patch_3">
    <path d="M 43.78125 354.958125 
L 43.78125 22.318125 
" style="fill: none; stroke: #000000; stroke-width: 0.8; stroke-linejoin: miter; stroke-linecap: square"/>
   </g>
   <g id="patch_4">
    <path d="M 490.18125 354.958125 
L 490.18125 22.318125 
" style="fill: none; stroke: #000000; stroke-width: 0.8; stroke-linejoin: miter; stroke-linecap: square"/>
   </g>
   <g id="patch_5">
    <path d="M 43.78125 354.958125 
L 490.18125 354.958125 
" style="fill: none; stroke: #000000; stroke-width: 0.8; stroke-linejoin: miter; stroke-linecap: square"/>
   </g>
   <g id="patch_6">
    <path d="M 43.78125 22.318125 
L 490.18125 22.318125 
" style="fill: none; stroke: #000000; stroke-width: 0.8; stroke-linejoin: miter; stroke-linecap: square"/>
   </g>
   <g id="text_15">
    <!-- Receiver Operating Characteristic (ROC) Curve -->
    <g transform="translate(126.19875 16.318125) scale(0.12 -0.12)">
     <defs>
      <path id="DejaVuSans-63" d="M 3122 3366 
L 3122 2828 
Q 2878 2963 2633 3030 
Q 2388 3097 2138 3097 
Q 1578 3097 1268 2742 
Q 959 2388 959 1747 
Q 959 1106 1268 751 
Q 1578 397 2138 397 
Q 2388 397 2633 464 
Q 2878 531 3122 666 
L 3122 134 
Q 2881 22 2623 -34 
Q 2366 -91 2075 -91 
Q 1284 -91 818 406 
Q 353 903 353 1747 
Q 353 2603 823 3093 
Q 1294 3584 2113 3584 
Q 2378 3584 2631 3529 
Q 2884 3475 3122 3366 
z
" transform="scale(0.015625)"/>
      <path id="DejaVuSans-4f" d="M 2522 4238 
Q 1834 4238 1429 3725 
Q 1025 3213 1025 2328 
Q 1025 1447 1429 934 
Q 1834 422 2522 422 
Q 3209 422 3611 934 
Q 4013 1447 4013 2328 
Q 4013 3213 3611 3725 
Q 3209 4238 2522 4238 
z
M 2522 4750 
Q 3503 4750 4090 4092 
Q 4678 3434 4678 2328 
Q 4678 1225 4090 567 
Q 3503 -91 2522 -91 
Q 1538 -91 948 565 
Q 359 1222 359 2328 
Q 359 3434 948 4092 
Q 1538 4750 2522 4750 
z
" transform="scale(0.015625)"/>
      <path id="DejaVuSans-70" d="M 1159 525 
L 1159 -1331 
L 581 -1331 
L 581 3500 
L 1159 3500 
L 1159 2969 
Q 1341 3281 1617 3432 
Q 1894 3584 2278 3584 
Q 2916 3584 3314 3078 
Q 3713 2572 3713 1747 
Q 3713 922 3314 415 
Q 2916 -91 2278 -91 
Q 1894 -91 1617 61 
Q 1341 213 1159 525 
z
M 3116 1747 
Q 3116 2381 2855 2742 
Q 2594 3103 2138 3103 
Q 1681 3103 1420 2742 
Q 1159 2381 1159 1747 
Q 1159 1113 1420 752 
Q 1681 391 2138 391 
Q 2594 391 2855 752 
Q 3116 1113 3116 1747 
z
" transform="scale(0.015625)"/>
      <path id="DejaVuSans-6e" d="M 3513 2113 
L 3513 0 
L 2938 0 
L 2938 2094 
Q 2938 2591 2744 2837 
Q 2550 3084 2163 3084 
Q 1697 3084 1428 2787 
Q 1159 2491 1159 1978 
L 1159 0 
L 581 0 
L 581 3500 
L 1159 3500 
L 1159 2956 
Q 1366 3272 1645 3428 
Q 1925 3584 2291 3584 
Q 2894 3584 3203 3211 
Q 3513 2838 3513 2113 
z
" transform="scale(0.015625)"/>
      <path id="DejaVuSans-67" d="M 2906 1791 
Q 2906 2416 2648 2759 
Q 2391 3103 1925 3103 
Q 1463 3103 1205 2759 
Q 947 2416 947 1791 
Q 947 1169 1205 825 
Q 1463 481 1925 481 
Q 2391 481 2648 825 
Q 2906 1169 2906 1791 
z
M 3481 434 
Q 3481 -459 3084 -895 
Q 2688 -1331 1869 -1331 
Q 1566 -1331 1297 -1286 
Q 1028 -1241 775 -1147 
L 775 -588 
Q 1028 -725 1275 -790 
Q 1522 -856 1778 -856 
Q 2344 -856 2625 -561 
Q 2906 -266 2906 331 
L 2906 616 
Q 2728 306 2450 153 
Q 2172 0 1784 0 
Q 1141 0 747 490 
Q 353 981 353 1791 
Q 353 2603 747 3093 
Q 1141 3584 1784 3584 
Q 2172 3584 2450 3431 
Q 2728 3278 2906 2969 
L 2906 3500 
L 3481 3500 
L 3481 434 
z
" transform="scale(0.015625)"/>
      <path id="DejaVuSans-43" d="M 4122 4306 
L 4122 3641 
Q 3803 3938 3442 4084 
Q 3081 4231 2675 4231 
Q 1875 4231 1450 3742 
Q 1025 3253 1025 2328 
Q 1025 1406 1450 917 
Q 1875 428 2675 428 
Q 3081 428 3442 575 
Q 3803 722 4122 1019 
L 4122 359 
Q 3791 134 3420 21 
Q 3050 -91 2638 -91 
Q 1578 -91 968 557 
Q 359 1206 359 2328 
Q 359 3453 968 4101 
Q 1578 4750 2638 4750 
Q 3056 4750 3426 4639 
Q 3797 4528 4122 4306 
z
" transform="scale(0.015625)"/>
      <path id="DejaVuSans-68" d="M 3513 2113 
L 3513 0 
L 2938 0 
L 2938 2094 
Q 2938 2591 2744 2837 
Q 2550 3084 2163 3084 
Q 1697 3084 1428 2787 
Q 1159 2491 1159 1978 
L 1159 0 
L 581 0 
L 581 4863 
L 1159 4863 
L 1159 2956 
Q 1366 3272 1645 3428 
Q 1925 3584 2291 3584 
Q 2894 3584 3203 3211 
Q 3513 2838 3513 2113 
z
" transform="scale(0.015625)"/>
      <path id="DejaVuSans-28" d="M 1984 4856 
Q 1566 4138 1362 3434 
Q 1159 2731 1159 2009 
Q 1159 1288 1364 580 
Q 1569 -128 1984 -844 
L 1484 -844 
Q 1016 -109 783 600 
Q 550 1309 550 2009 
Q 550 2706 781 3412 
Q 1013 4119 1484 4856 
L 1984 4856 
z
" transform="scale(0.015625)"/>
      <path id="DejaVuSans-29" d="M 513 4856 
L 1013 4856 
Q 1481 4119 1714 3412 
Q 1947 2706 1947 2009 
Q 1947 1309 1714 600 
Q 1481 -109 1013 -844 
L 513 -844 
Q 928 -128 1133 580 
Q 1338 1288 1338 2009 
Q 1338 2731 1133 3434 
Q 928 4138 513 4856 
z
" transform="scale(0.015625)"/>
     </defs>
     <use xlink:href="#DejaVuSans-52"/>
     <use xlink:href="#DejaVuSans-65" transform="translate(64.982422 0)"/>
     <use xlink:href="#DejaVuSans-63" transform="translate(126.505859 0)"/>
     <use xlink:href="#DejaVuSans-65" transform="translate(181.486328 0)"/>
     <use xlink:href="#DejaVuSans-69" transform="translate(243.009766 0)"/>
     <use xlink:href="#DejaVuSans-76" transform="translate(270.792969 0)"/>
     <use xlink:href="#DejaVuSans-65" transform="translate(329.972656 0)"/>
     <use xlink:href="#DejaVuSans-72" transform="translate(391.496094 0)"/>
     <use xlink:href="#DejaVuSans-20" transform="translate(432.609375 0)"/>
     <use xlink:href="#DejaVuSans-4f" transform="translate(464.396484 0)"/>
     <use xlink:href="#DejaVuSans-70" transform="translate(543.107422 0)"/>
     <use xlink:href="#DejaVuSans-65" transform="translate(606.583984 0)"/>
     <use xlink:href="#DejaVuSans-72" transform="translate(668.107422 0)"/>
     <use xlink:href="#DejaVuSans-61" transform="translate(709.220703 0)"/>
     <use xlink:href="#DejaVuSans-74" transform="translate(770.5 0)"/>
     <use xlink:href="#DejaVuSans-69" transform="translate(809.708984 0)"/>
     <use xlink:href="#DejaVuSans-6e" transform="translate(837.492188 0)"/>
     <use xlink:href="#DejaVuSans-67" transform="translate(900.871094 0)"/>
     <use xlink:href="#DejaVuSans-20" transform="translate(964.347656 0)"/>
     <use xlink:href="#DejaVuSans-43" transform="translate(996.134766 0)"/>
     <use xlink:href="#DejaVuSans-68" transform="translate(1065.958984 0)"/>
     <use xlink:href="#DejaVuSans-61" transform="translate(1129.337891 0)"/>
     <use xlink:href="#DejaVuSans-72" transform="translate(1190.617188 0)"/>
     <use xlink:href="#DejaVuSans-61" transform="translate(1231.730469 0)"/>
     <use xlink:href="#DejaVuSans-63" transform="translate(1293.009766 0)"/>
     <use xlink:href="#DejaVuSans-74" transform="translate(1347.990234 0)"/>
     <use xlink:href="#DejaVuSans-65" transform="translate(1387.199219 0)"/>
     <use xlink:href="#DejaVuSans-72" transform="translate(1448.722656 0)"/>
     <use xlink:href="#DejaVuSans-69" transform="translate(1489.835938 0)"/>
     <use xlink:href="#DejaVuSans-73" transform="translate(1517.619141 0)"/>
     <use xlink:href="#DejaVuSans-74" transform="translate(1569.71875 0)"/>
     <use xlink:href="#DejaVuSans-69" transform="translate(1608.927734 0)"/>
     <use xlink:href="#DejaVuSans-63" transform="translate(1636.710938 0)"/>
     <use xlink:href="#DejaVuSans-20" transform="translate(1691.691406 0)"/>
     <use xlink:href="#DejaVuSans-28" transform="translate(1723.478516 0)"/>
     <use xlink:href="#DejaVuSans-52" transform="translate(1762.492188 0)"/>
     <use xlink:href="#DejaVuSans-4f" transform="translate(1831.974609 0)"/>
     <use xlink:href="#DejaVuSans-43" transform="translate(1910.685547 0)"/>
     <use xlink:href="#DejaVuSans-29" transform="translate(1980.509766 0)"/>
     <use xlink:href="#DejaVuSans-20" transform="translate(2019.523438 0)"/>
     <use xlink:href="#DejaVuSans-43" transform="translate(2051.310547 0)"/>
     <use xlink:href="#DejaVuSans-75" transform="translate(2121.134766 0)"/>
     <use xlink:href="#DejaVuSans-72" transform="translate(2184.513672 0)"/>
     <use xlink:href="#DejaVuSans-76" transform="translate(2225.626953 0)"/>
     <use xlink:href="#DejaVuSans-65" transform="translate(2284.806641 0)"/>
    </g>
   </g>
   <g id="legend_1">
    <g id="patch_7">
     <path d="M 329.05625 349.958125 
L 483.18125 349.958125 
Q 485.18125 349.958125 485.18125 347.958125 
L 485.18125 319.601875 
Q 485.18125 317.601875 483.18125 317.601875 
L 329.05625 317.601875 
Q 327.05625 317.601875 327.05625 319.601875 
L 327.05625 347.958125 
Q 327.05625 349.958125 329.05625 349.958125 
z
" style="fill: #ffffff; opacity: 0.8; stroke: #cccccc; stroke-linejoin: miter"/>
    </g>
    <g id="line2d_27">
     <path d="M 331.05625 325.700312 
L 341.05625 325.700312 
L 351.05625 325.700312 
" style="fill: none; stroke: #ff8c00; stroke-width: 2; stroke-linecap: square"/>
    </g>
    <g id="text_16">
     <!-- ROC curve (AUC = 0.97) -->
     <g transform="translate(359.05625 329.200312) scale(0.1 -0.1)">
      <defs>
       <path id="DejaVuSans-41" d="M 2188 4044 
L 1331 1722 
L 3047 1722 
L 2188 4044 
z
M 1831 4666 
L 2547 4666 
L 4325 0 
L 3669 0 
L 3244 1197 
L 1141 1197 
L 716 0 
L 50 0 
L 1831 4666 
z
" transform="scale(0.015625)"/>
       <path id="DejaVuSans-55" d="M 556 4666 
L 1191 4666 
L 1191 1831 
Q 1191 1081 1462 751 
Q 1734 422 2344 422 
Q 2950 422 3222 751 
Q 3494 1081 3494 1831 
L 3494 4666 
L 4128 4666 
L 4128 1753 
Q 4128 841 3676 375 
Q 3225 -91 2344 -91 
Q 1459 -91 1007 375 
Q 556 841 556 1753 
L 556 4666 
z
" transform="scale(0.015625)"/>
       <path id="DejaVuSans-3d" d="M 678 2906 
L 4684 2906 
L 4684 2381 
L 678 2381 
L 678 2906 
z
M 678 1631 
L 4684 1631 
L 4684 1100 
L 678 1100 
L 678 1631 
z
" transform="scale(0.015625)"/>
       <path id="DejaVuSans-39" d="M 703 97 
L 703 672 
Q 941 559 1184 500 
Q 1428 441 1663 441 
Q 2288 441 2617 861 
Q 2947 1281 2994 2138 
Q 2813 1869 2534 1725 
Q 2256 1581 1919 1581 
Q 1219 1581 811 2004 
Q 403 2428 403 3163 
Q 403 3881 828 4315 
Q 1253 4750 1959 4750 
Q 2769 4750 3195 4129 
Q 3622 3509 3622 2328 
Q 3622 1225 3098 567 
Q 2575 -91 1691 -91 
Q 1453 -91 1209 -44 
Q 966 3 703 97 
z
M 1959 2075 
Q 2384 2075 2632 2365 
Q 2881 2656 2881 3163 
Q 2881 3666 2632 3958 
Q 2384 4250 1959 4250 
Q 1534 4250 1286 3958 
Q 1038 3666 1038 3163 
Q 1038 2656 1286 2365 
Q 1534 2075 1959 2075 
z
" transform="scale(0.015625)"/>
       <path id="DejaVuSans-37" d="M 525 4666 
L 3525 4666 
L 3525 4397 
L 1831 0 
L 1172 0 
L 2766 4134 
L 525 4134 
L 525 4666 
z
" transform="scale(0.015625)"/>
      </defs>
      <use xlink:href="#DejaVuSans-52"/>
      <use xlink:href="#DejaVuSans-4f" transform="translate(69.482422 0)"/>
      <use xlink:href="#DejaVuSans-43" transform="translate(148.193359 0)"/>
      <use xlink:href="#DejaVuSans-20" transform="translate(218.017578 0)"/>
      <use xlink:href="#DejaVuSans-63" transform="translate(249.804688 0)"/>
      <use xlink:href="#DejaVuSans-75" transform="translate(304.785156 0)"/>
      <use xlink:href="#DejaVuSans-72" transform="translate(368.164062 0)"/>
      <use xlink:href="#DejaVuSans-76" transform="translate(409.277344 0)"/>
      <use xlink:href="#DejaVuSans-65" transform="translate(468.457031 0)"/>
      <use xlink:href="#DejaVuSans-20" transform="translate(529.980469 0)"/>
      <use xlink:href="#DejaVuSans-28" transform="translate(561.767578 0)"/>
      <use xlink:href="#DejaVuSans-41" transform="translate(600.78125 0)"/>
      <use xlink:href="#DejaVuSans-55" transform="translate(669.189453 0)"/>
      <use xlink:href="#DejaVuSans-43" transform="translate(742.382812 0)"/>
      <use xlink:href="#DejaVuSans-20" transform="translate(812.207031 0)"/>
      <use xlink:href="#DejaVuSans-3d" transform="translate(843.994141 0)"/>
      <use xlink:href="#DejaVuSans-20" transform="translate(927.783203 0)"/>
      <use xlink:href="#DejaVuSans-30" transform="translate(959.570312 0)"/>
      <use xlink:href="#DejaVuSans-2e" transform="translate(1023.193359 0)"/>
      <use xlink:href="#DejaVuSans-39" transform="translate(1054.980469 0)"/>
      <use xlink:href="#DejaVuSans-37" transform="translate(1118.603516 0)"/>
      <use xlink:href="#DejaVuSans-29" transform="translate(1182.226562 0)"/>
     </g>
    </g>
    <g id="line2d_28">
     <path d="M 331.05625 340.378437 
L 341.05625 340.378437 
L 351.05625 340.378437 
" style="fill: none; stroke-dasharray: 7.4,3.2; stroke-dashoffset: 0; stroke: #000080; stroke-width: 2"/>
    </g>
    <g id="text_17">
     <!-- Random Guess -->
     <g transform="translate(359.05625 343.878437) scale(0.1 -0.1)">
      <defs>
       <path id="DejaVuSans-64" d="M 2906 2969 
L 2906 4863 
L 3481 4863 
L 3481 0 
L 2906 0 
L 2906 525 
Q 2725 213 2448 61 
Q 2172 -91 1784 -91 
Q 1150 -91 751 415 
Q 353 922 353 1747 
Q 353 2572 751 3078 
Q 1150 3584 1784 3584 
Q 2172 3584 2448 3432 
Q 2725 3281 2906 2969 
z
M 947 1747 
Q 947 1113 1208 752 
Q 1469 391 1925 391 
Q 2381 391 2643 752 
Q 2906 1113 2906 1747 
Q 2906 2381 2643 2742 
Q 2381 3103 1925 3103 
Q 1469 3103 1208 2742 
Q 947 2381 947 1747 
z
" transform="scale(0.015625)"/>
       <path id="DejaVuSans-6d" d="M 3328 2828 
Q 3544 3216 3844 3400 
Q 4144 3584 4550 3584 
Q 5097 3584 5394 3201 
Q 5691 2819 5691 2113 
L 5691 0 
L 5113 0 
L 5113 2094 
Q 5113 2597 4934 2840 
Q 4756 3084 4391 3084 
Q 3944 3084 3684 2787 
Q 3425 2491 3425 1978 
L 3425 0 
L 2847 0 
L 2847 2094 
Q 2847 2600 2669 2842 
Q 2491 3084 2119 3084 
Q 1678 3084 1418 2786 
Q 1159 2488 1159 1978 
L 1159 0 
L 581 0 
L 581 3500 
L 1159 3500 
L 1159 2956 
Q 1356 3278 1631 3431 
Q 1906 3584 2284 3584 
Q 2666 3584 2933 3390 
Q 3200 3197 3328 2828 
z
" transform="scale(0.015625)"/>
       <path id="DejaVuSans-47" d="M 3809 666 
L 3809 1919 
L 2778 1919 
L 2778 2438 
L 4434 2438 
L 4434 434 
Q 4069 175 3628 42 
Q 3188 -91 2688 -91 
Q 1594 -91 976 548 
Q 359 1188 359 2328 
Q 359 3472 976 4111 
Q 1594 4750 2688 4750 
Q 3144 4750 3555 4637 
Q 3966 4525 4313 4306 
L 4313 3634 
Q 3963 3931 3569 4081 
Q 3175 4231 2741 4231 
Q 1884 4231 1454 3753 
Q 1025 3275 1025 2328 
Q 1025 1384 1454 906 
Q 1884 428 2741 428 
Q 3075 428 3337 486 
Q 3600 544 3809 666 
z
" transform="scale(0.015625)"/>
      </defs>
      <use xlink:href="#DejaVuSans-52"/>
      <use xlink:href="#DejaVuSans-61" transform="translate(67.232422 0)"/>
      <use xlink:href="#DejaVuSans-6e" transform="translate(128.511719 0)"/>
      <use xlink:href="#DejaVuSans-64" transform="translate(191.890625 0)"/>
      <use xlink:href="#DejaVuSans-6f" transform="translate(255.367188 0)"/>
      <use xlink:href="#DejaVuSans-6d" transform="translate(316.548828 0)"/>
      <use xlink:href="#DejaVuSans-20" transform="translate(413.960938 0)"/>
      <use xlink:href="#DejaVuSans-47" transform="translate(445.748047 0)"/>
      <use xlink:href="#DejaVuSans-75" transform="translate(523.238281 0)"/>
      <use xlink:href="#DejaVuSans-65" transform="translate(586.617188 0)"/>
      <use xlink:href="#DejaVuSans-73" transform="translate(648.140625 0)"/>
      <use xlink:href="#DejaVuSans-73" transform="translate(700.240234 0)"/>
     </g>
    </g>
   </g>
  </g>
 </g>
 <defs>
  <clipPath id="p7f9bfa9af4">
   <rect x="43.78125" y="22.318125" width="446.4" height="332.64"/>
  </clipPath>
 </defs>
</svg>
