<?xml version="1.0" encoding="utf-8" standalone="no"?>
<!DOCTYPE svg PUBLIC "-//W3C//DTD SVG 1.1//EN"
  "http://www.w3.org/Graphics/SVG/1.1/DTD/svg11.dtd">
<svg xmlns:xlink="http://www.w3.org/1999/xlink" width="505.332812pt" height="392.514375pt" viewBox="0 0 505.332812 392.514375" xmlns="http://www.w3.org/2000/svg" version="1.1">
 <metadata>
  <rdf:RDF xmlns:dc="http://purl.org/dc/elements/1.1/" xmlns:cc="http://creativecommons.org/ns#" xmlns:rdf="http://www.w3.org/1999/02/22-rdf-syntax-ns#">
   <cc:Work>
    <dc:type rdf:resource="http://purl.org/dc/dcmitype/StillImage"/>
    <dc:date>2025-07-21T14:27:55.366174</dc:date>
    <dc:format>image/svg+xml</dc:format>
    <dc:creator>
     <cc:Agent>
      <dc:title>Matplotlib v3.10.3, https://matplotlib.org/</dc:title>
     </cc:Agent>
    </dc:creator>
   </cc:Work>
  </rdf:RDF>
 </metadata>
 <defs>
  <style type="text/css">*{stroke-linejoin: round; stroke-linecap: butt}</style>
 </defs>
 <g id="figure_1">
  <g id="patch_1">
   <path d="M 0 392.514375 
L 505.332812 392.514375 
L 505.332812 0 
L 0 0 
z
" style="fill: #ffffff"/>
  </g>
  <g id="axes_1">
   <g id="patch_2">
    <path d="M 43.78125 354.958125 
L 490.18125 354.958125 
L 490.18125 22.318125 
L 43.78125 22.318125 
z
" style="fill: #ffffff"/>
   </g>
   <g id="matplotlib.axis_1">
    <g id="xtick_1">
     <g id="line2d_1">
      <path d="M 43.78125 354.958125 
L 43.78125 22.318125 
" clip-path="url(#pf1282744ec)" style="fill: none; stroke: #b0b0b0; stroke-width: 0.8; stroke-linecap: square"/>
     </g>
     <g id="line2d_2">
      <defs>
       <path id="m85edf1a29a" d="M 0 0 
L 0 3.5 
" style="stroke: #000000; stroke-width: 0.8"/>
      </defs>
      <g>
       <use xlink:href="#m85edf1a29a" x="43.78125" y="354.958125" style="stroke: #000000; stroke-width: 0.8"/>
      </g>
     </g>
     <g id="text_1">
      <!-- 0.0 -->
      <g transform="translate(35.829688 369.556562) scale(0.1 -0.1)">
       <defs>
        <path id="DejaVuSans-30" d="M 2034 4250 
Q 1547 4250 1301 3770 
Q 1056 3291 1056 2328 
Q 1056 1369 1301 889 
Q 1547 409 2034 409 
Q 2525 409 2770 889 
Q 3016 1369 3016 2328 
Q 3016 3291 2770 3770 
Q 2525 4250 2034 4250 
z
M 2034 4750 
Q 2819 4750 3233 4129 
Q 3647 3509 3647 2328 
Q 3647 1150 3233 529 
Q 2819 -91 2034 -91 
Q 1250 -91 836 529 
Q 422 1150 422 2328 
Q 422 3509 836 4129 
Q 1250 4750 2034 4750 
z
" transform="scale(0.015625)"/>
        <path id="DejaVuSans-2e" d="M 684 794 
L 1344 794 
L 1344 0 
L 684 0 
L 684 794 
z
" transform="scale(0.015625)"/>
       </defs>
       <use xlink:href="#DejaVuSans-30"/>
       <use xlink:href="#DejaVuSans-2e" transform="translate(63.623047 0)"/>
       <use xlink:href="#DejaVuSans-30" transform="translate(95.410156 0)"/>
      </g>
     </g>
    </g>
    <g id="xtick_2">
     <g id="line2d_3">
      <path d="M 133.06125 354.958125 
L 133.06125 22.318125 
" clip-path="url(#pf1282744ec)" style="fill: none; stroke: #b0b0b0; stroke-width: 0.8; stroke-linecap: square"/>
     </g>
     <g id="line2d_4">
      <g>
       <use xlink:href="#m85edf1a29a" x="133.06125" y="354.958125" style="stroke: #000000; stroke-width: 0.8"/>
      </g>
     </g>
     <g id="text_2">
      <!-- 0.2 -->
      <g transform="translate(125.109688 369.556562) scale(0.1 -0.1)">
       <defs>
        <path id="DejaVuSans-32" d="M 1228 531 
L 3431 531 
L 3431 0 
L 469 0 
L 469 531 
Q 828 903 1448 1529 
Q 2069 2156 2228 2338 
Q 2531 2678 2651 2914 
Q 2772 3150 2772 3378 
Q 2772 3750 2511 3984 
Q 2250 4219 1831 4219 
Q 1534 4219 1204 4116 
Q 875 4013 500 3803 
L 500 4441 
Q 881 4594 1212 4672 
Q 1544 4750 1819 4750 
Q 2544 4750 2975 4387 
Q 3406 4025 3406 3419 
Q 3406 3131 3298 2873 
Q 3191 2616 2906 2266 
Q 2828 2175 2409 1742 
Q 1991 1309 1228 531 
z
" transform="scale(0.015625)"/>
       </defs>
       <use xlink:href="#DejaVuSans-30"/>
       <use xlink:href="#DejaVuSans-2e" transform="translate(63.623047 0)"/>
       <use xlink:href="#DejaVuSans-32" transform="translate(95.410156 0)"/>
      </g>
     </g>
    </g>
    <g id="xtick_3">
     <g id="line2d_5">
      <path d="M 222.34125 354.958125 
L 222.34125 22.318125 
" clip-path="url(#pf1282744ec)" style="fill: none; stroke: #b0b0b0; stroke-width: 0.8; stroke-linecap: square"/>
     </g>
     <g id="line2d_6">
      <g>
       <use xlink:href="#m85edf1a29a" x="222.34125" y="354.958125" style="stroke: #000000; stroke-width: 0.8"/>
      </g>
     </g>
     <g id="text_3">
      <!-- 0.4 -->
      <g transform="translate(214.389688 369.556562) scale(0.1 -0.1)">
       <defs>
        <path id="DejaVuSans-34" d="M 2419 4116 
L 825 1625 
L 2419 1625 
L 2419 4116 
z
M 2253 4666 
L 3047 4666 
L 3047 1625 
L 3713 1625 
L 3713 1100 
L 3047 1100 
L 3047 0 
L 2419 0 
L 2419 1100 
L 313 1100 
L 313 1709 
L 2253 4666 
z
" transform="scale(0.015625)"/>
       </defs>
       <use xlink:href="#DejaVuSans-30"/>
       <use xlink:href="#DejaVuSans-2e" transform="translate(63.623047 0)"/>
       <use xlink:href="#DejaVuSans-34" transform="translate(95.410156 0)"/>
      </g>
     </g>
    </g>
    <g id="xtick_4">
     <g id="line2d_7">
      <path d="M 311.62125 354.958125 
L 311.62125 22.318125 
" clip-path="url(#pf1282744ec)" style="fill: none; stroke: #b0b0b0; stroke-width: 0.8; stroke-linecap: square"/>
     </g>
     <g id="line2d_8">
      <g>
       <use xlink:href="#m85edf1a29a" x="311.62125" y="354.958125" style="stroke: #000000; stroke-width: 0.8"/>
      </g>
     </g>
     <g id="text_4">
      <!-- 0.6 -->
      <g transform="translate(303.669688 369.556562) scale(0.1 -0.1)">
       <defs>
        <path id="DejaVuSans-36" d="M 2113 2584 
Q 1688 2584 1439 2293 
Q 1191 2003 1191 1497 
Q 1191 994 1439 701 
Q 1688 409 2113 409 
Q 2538 409 2786 701 
Q 3034 994 3034 1497 
Q 3034 2003 2786 2293 
Q 2538 2584 2113 2584 
z
M 3366 4563 
L 3366 3988 
Q 3128 4100 2886 4159 
Q 2644 4219 2406 4219 
Q 1781 4219 1451 3797 
Q 1122 3375 1075 2522 
Q 1259 2794 1537 2939 
Q 1816 3084 2150 3084 
Q 2853 3084 3261 2657 
Q 3669 2231 3669 1497 
Q 3669 778 3244 343 
Q 2819 -91 2113 -91 
Q 1303 -91 875 529 
Q 447 1150 447 2328 
Q 447 3434 972 4092 
Q 1497 4750 2381 4750 
Q 2619 4750 2861 4703 
Q 3103 4656 3366 4563 
z
" transform="scale(0.015625)"/>
       </defs>
       <use xlink:href="#DejaVuSans-30"/>
       <use xlink:href="#DejaVuSans-2e" transform="translate(63.623047 0)"/>
       <use xlink:href="#DejaVuSans-36" transform="translate(95.410156 0)"/>
      </g>
     </g>
    </g>
    <g id="xtick_5">
     <g id="line2d_9">
      <path d="M 400.90125 354.958125 
L 400.90125 22.318125 
" clip-path="url(#pf1282744ec)" style="fill: none; stroke: #b0b0b0; stroke-width: 0.8; stroke-linecap: square"/>
     </g>
     <g id="line2d_10">
      <g>
       <use xlink:href="#m85edf1a29a" x="400.90125" y="354.958125" style="stroke: #000000; stroke-width: 0.8"/>
      </g>
     </g>
     <g id="text_5">
      <!-- 0.8 -->
      <g transform="translate(392.949687 369.556562) scale(0.1 -0.1)">
       <defs>
        <path id="DejaVuSans-38" d="M 2034 2216 
Q 1584 2216 1326 1975 
Q 1069 1734 1069 1313 
Q 1069 891 1326 650 
Q 1584 409 2034 409 
Q 2484 409 2743 651 
Q 3003 894 3003 1313 
Q 3003 1734 2745 1975 
Q 2488 2216 2034 2216 
z
M 1403 2484 
Q 997 2584 770 2862 
Q 544 3141 544 3541 
Q 544 4100 942 4425 
Q 1341 4750 2034 4750 
Q 2731 4750 3128 4425 
Q 3525 4100 3525 3541 
Q 3525 3141 3298 2862 
Q 3072 2584 2669 2484 
Q 3125 2378 3379 2068 
Q 3634 1759 3634 1313 
Q 3634 634 3220 271 
Q 2806 -91 2034 -91 
Q 1263 -91 848 271 
Q 434 634 434 1313 
Q 434 1759 690 2068 
Q 947 2378 1403 2484 
z
M 1172 3481 
Q 1172 3119 1398 2916 
Q 1625 2713 2034 2713 
Q 2441 2713 2670 2916 
Q 2900 3119 2900 3481 
Q 2900 3844 2670 4047 
Q 2441 4250 2034 4250 
Q 1625 4250 1398 4047 
Q 1172 3844 1172 3481 
z
" transform="scale(0.015625)"/>
       </defs>
       <use xlink:href="#DejaVuSans-30"/>
       <use xlink:href="#DejaVuSans-2e" transform="translate(63.623047 0)"/>
       <use xlink:href="#DejaVuSans-38" transform="translate(95.410156 0)"/>
      </g>
     </g>
    </g>
    <g id="xtick_6">
     <g id="line2d_11">
      <path d="M 490.18125 354.958125 
L 490.18125 22.318125 
" clip-path="url(#pf1282744ec)" style="fill: none; stroke: #b0b0b0; stroke-width: 0.8; stroke-linecap: square"/>
     </g>
     <g id="line2d_12">
      <g>
       <use xlink:href="#m85edf1a29a" x="490.18125" y="354.958125" style="stroke: #000000; stroke-width: 0.8"/>
      </g>
     </g>
     <g id="text_6">
      <!-- 1.0 -->
      <g transform="translate(482.229687 369.556562) scale(0.1 -0.1)">
       <defs>
        <path id="DejaVuSans-31" d="M 794 531 
L 1825 531 
L 1825 4091 
L 703 3866 
L 703 4441 
L 1819 4666 
L 2450 4666 
L 2450 531 
L 3481 531 
L 3481 0 
L 794 0 
L 794 531 
z
" transform="scale(0.015625)"/>
       </defs>
       <use xlink:href="#DejaVuSans-31"/>
       <use xlink:href="#DejaVuSans-2e" transform="translate(63.623047 0)"/>
       <use xlink:href="#DejaVuSans-30" transform="translate(95.410156 0)"/>
      </g>
     </g>
    </g>
    <g id="text_7">
     <!-- False Positive Rate -->
     <g transform="translate(220.514844 383.234687) scale(0.1 -0.1)">
      <defs>
       <path id="DejaVuSans-46" d="M 628 4666 
L 3309 4666 
L 3309 4134 
L 1259 4134 
L 1259 2759 
L 3109 2759 
L 3109 2228 
L 1259 2228 
L 1259 0 
L 628 0 
L 628 4666 
z
" transform="scale(0.015625)"/>
       <path id="DejaVuSans-61" d="M 2194 1759 
Q 1497 1759 1228 1600 
Q 959 1441 959 1056 
Q 959 750 1161 570 
Q 1363 391 1709 391 
Q 2188 391 2477 730 
Q 2766 1069 2766 1631 
L 2766 1759 
L 2194 1759 
z
M 3341 1997 
L 3341 0 
L 2766 0 
L 2766 531 
Q 2569 213 2275 61 
Q 1981 -91 1556 -91 
Q 1019 -91 701 211 
Q 384 513 384 1019 
Q 384 1609 779 1909 
Q 1175 2209 1959 2209 
L 2766 2209 
L 2766 2266 
Q 2766 2663 2505 2880 
Q 2244 3097 1772 3097 
Q 1472 3097 1187 3025 
Q 903 2953 641 2809 
L 641 3341 
Q 956 3463 1253 3523 
Q 1550 3584 1831 3584 
Q 2591 3584 2966 3190 
Q 3341 2797 3341 1997 
z
" transform="scale(0.015625)"/>
       <path id="DejaVuSans-6c" d="M 603 4863 
L 1178 4863 
L 1178 0 
L 603 0 
L 603 4863 
z
" transform="scale(0.015625)"/>
       <path id="DejaVuSans-73" d="M 2834 3397 
L 2834 2853 
Q 2591 2978 2328 3040 
Q 2066 3103 1784 3103 
Q 1356 3103 1142 2972 
Q 928 2841 928 2578 
Q 928 2378 1081 2264 
Q 1234 2150 1697 2047 
L 1894 2003 
Q 2506 1872 2764 1633 
Q 3022 1394 3022 966 
Q 3022 478 2636 193 
Q 2250 -91 1575 -91 
Q 1294 -91 989 -36 
Q 684 19 347 128 
L 347 722 
Q 666 556 975 473 
Q 1284 391 1588 391 
Q 1994 391 2212 530 
Q 2431 669 2431 922 
Q 2431 1156 2273 1281 
Q 2116 1406 1581 1522 
L 1381 1569 
Q 847 1681 609 1914 
Q 372 2147 372 2553 
Q 372 3047 722 3315 
Q 1072 3584 1716 3584 
Q 2034 3584 2315 3537 
Q 2597 3491 2834 3397 
z
" transform="scale(0.015625)"/>
       <path id="DejaVuSans-65" d="M 3597 1894 
L 3597 1613 
L 953 1613 
Q 991 1019 1311 708 
Q 1631 397 2203 397 
Q 2534 397 2845 478 
Q 3156 559 3463 722 
L 3463 178 
Q 3153 47 2828 -22 
Q 2503 -91 2169 -91 
Q 1331 -91 842 396 
Q 353 884 353 1716 
Q 353 2575 817 3079 
Q 1281 3584 2069 3584 
Q 2775 3584 3186 3129 
Q 3597 2675 3597 1894 
z
M 3022 2063 
Q 3016 2534 2758 2815 
Q 2500 3097 2075 3097 
Q 1594 3097 1305 2825 
Q 1016 2553 972 2059 
L 3022 2063 
z
" transform="scale(0.015625)"/>
       <path id="DejaVuSans-20" transform="scale(0.015625)"/>
       <path id="DejaVuSans-50" d="M 1259 4147 
L 1259 2394 
L 2053 2394 
Q 2494 2394 2734 2622 
Q 2975 2850 2975 3272 
Q 2975 3691 2734 3919 
Q 2494 4147 2053 4147 
L 1259 4147 
z
M 628 4666 
L 2053 4666 
Q 2838 4666 3239 4311 
Q 3641 3956 3641 3272 
Q 3641 2581 3239 2228 
Q 2838 1875 2053 1875 
L 1259 1875 
L 1259 0 
L 628 0 
L 628 4666 
z
" transform="scale(0.015625)"/>
       <path id="DejaVuSans-6f" d="M 1959 3097 
Q 1497 3097 1228 2736 
Q 959 2375 959 1747 
Q 959 1119 1226 758 
Q 1494 397 1959 397 
Q 2419 397 2687 759 
Q 2956 1122 2956 1747 
Q 2956 2369 2687 2733 
Q 2419 3097 1959 3097 
z
M 1959 3584 
Q 2709 3584 3137 3096 
Q 3566 2609 3566 1747 
Q 3566 888 3137 398 
Q 2709 -91 1959 -91 
Q 1206 -91 779 398 
Q 353 888 353 1747 
Q 353 2609 779 3096 
Q 1206 3584 1959 3584 
z
" transform="scale(0.015625)"/>
       <path id="DejaVuSans-69" d="M 603 3500 
L 1178 3500 
L 1178 0 
L 603 0 
L 603 3500 
z
M 603 4863 
L 1178 4863 
L 1178 4134 
L 603 4134 
L 603 4863 
z
" transform="scale(0.015625)"/>
       <path id="DejaVuSans-74" d="M 1172 4494 
L 1172 3500 
L 2356 3500 
L 2356 3053 
L 1172 3053 
L 1172 1153 
Q 1172 725 1289 603 
Q 1406 481 1766 481 
L 2356 481 
L 2356 0 
L 1766 0 
Q 1100 0 847 248 
Q 594 497 594 1153 
L 594 3053 
L 172 3053 
L 172 3500 
L 594 3500 
L 594 4494 
L 1172 4494 
z
" transform="scale(0.015625)"/>
       <path id="DejaVuSans-76" d="M 191 3500 
L 800 3500 
L 1894 563 
L 2988 3500 
L 3597 3500 
L 2284 0 
L 1503 0 
L 191 3500 
z
" transform="scale(0.015625)"/>
       <path id="DejaVuSans-52" d="M 2841 2188 
Q 3044 2119 3236 1894 
Q 3428 1669 3622 1275 
L 4263 0 
L 3584 0 
L 2988 1197 
Q 2756 1666 2539 1819 
Q 2322 1972 1947 1972 
L 1259 1972 
L 1259 0 
L 628 0 
L 628 4666 
L 2053 4666 
Q 2853 4666 3247 4331 
Q 3641 3997 3641 3322 
Q 3641 2881 3436 2590 
Q 3231 2300 2841 2188 
z
M 1259 4147 
L 1259 2491 
L 2053 2491 
Q 2509 2491 2742 2702 
Q 2975 2913 2975 3322 
Q 2975 3731 2742 3939 
Q 2509 4147 2053 4147 
L 1259 4147 
z
" transform="scale(0.015625)"/>
      </defs>
      <use xlink:href="#DejaVuSans-46"/>
      <use xlink:href="#DejaVuSans-61" transform="translate(48.394531 0)"/>
      <use xlink:href="#DejaVuSans-6c" transform="translate(109.673828 0)"/>
      <use xlink:href="#DejaVuSans-73" transform="translate(137.457031 0)"/>
      <use xlink:href="#DejaVuSans-65" transform="translate(189.556641 0)"/>
      <use xlink:href="#DejaVuSans-20" transform="translate(251.080078 0)"/>
      <use xlink:href="#DejaVuSans-50" transform="translate(282.867188 0)"/>
      <use xlink:href="#DejaVuSans-6f" transform="translate(339.544922 0)"/>
      <use xlink:href="#DejaVuSans-73" transform="translate(400.726562 0)"/>
      <use xlink:href="#DejaVuSans-69" transform="translate(452.826172 0)"/>
      <use xlink:href="#DejaVuSans-74" transform="translate(480.609375 0)"/>
      <use xlink:href="#DejaVuSans-69" transform="translate(519.818359 0)"/>
      <use xlink:href="#DejaVuSans-76" transform="translate(547.601562 0)"/>
      <use xlink:href="#DejaVuSans-65" transform="translate(606.78125 0)"/>
      <use xlink:href="#DejaVuSans-20" transform="translate(668.304688 0)"/>
      <use xlink:href="#DejaVuSans-52" transform="translate(700.091797 0)"/>
      <use xlink:href="#DejaVuSans-61" transform="translate(767.324219 0)"/>
      <use xlink:href="#DejaVuSans-74" transform="translate(828.603516 0)"/>
      <use xlink:href="#DejaVuSans-65" transform="translate(867.8125 0)"/>
     </g>
    </g>
   </g>
   <g id="matplotlib.axis_2">
    <g id="ytick_1">
     <g id="line2d_13">
      <path d="M 43.78125 354.958125 
L 490.18125 354.958125 
" clip-path="url(#pf1282744ec)" style="fill: none; stroke: #b0b0b0; stroke-width: 0.8; stroke-linecap: square"/>
     </g>
     <g id="line2d_14">
      <defs>
       <path id="m5e0c45b685" d="M 0 0 
L -3.5 0 
" style="stroke: #000000; stroke-width: 0.8"/>
      </defs>
      <g>
       <use xlink:href="#m5e0c45b685" x="43.78125" y="354.958125" style="stroke: #000000; stroke-width: 0.8"/>
      </g>
     </g>
     <g id="text_8">
      <!-- 0.0 -->
      <g transform="translate(20.878125 358.757344) scale(0.1 -0.1)">
       <use xlink:href="#DejaVuSans-30"/>
       <use xlink:href="#DejaVuSans-2e" transform="translate(63.623047 0)"/>
       <use xlink:href="#DejaVuSans-30" transform="translate(95.410156 0)"/>
      </g>
     </g>
    </g>
    <g id="ytick_2">
     <g id="line2d_15">
      <path d="M 43.78125 291.598125 
L 490.18125 291.598125 
" clip-path="url(#pf1282744ec)" style="fill: none; stroke: #b0b0b0; stroke-width: 0.8; stroke-linecap: square"/>
     </g>
     <g id="line2d_16">
      <g>
       <use xlink:href="#m5e0c45b685" x="43.78125" y="291.598125" style="stroke: #000000; stroke-width: 0.8"/>
      </g>
     </g>
     <g id="text_9">
      <!-- 0.2 -->
      <g transform="translate(20.878125 295.397344) scale(0.1 -0.1)">
       <use xlink:href="#DejaVuSans-30"/>
       <use xlink:href="#DejaVuSans-2e" transform="translate(63.623047 0)"/>
       <use xlink:href="#DejaVuSans-32" transform="translate(95.410156 0)"/>
      </g>
     </g>
    </g>
    <g id="ytick_3">
     <g id="line2d_17">
      <path d="M 43.78125 228.238125 
L 490.18125 228.238125 
" clip-path="url(#pf1282744ec)" style="fill: none; stroke: #b0b0b0; stroke-width: 0.8; stroke-linecap: square"/>
     </g>
     <g id="line2d_18">
      <g>
       <use xlink:href="#m5e0c45b685" x="43.78125" y="228.238125" style="stroke: #000000; stroke-width: 0.8"/>
      </g>
     </g>
     <g id="text_10">
      <!-- 0.4 -->
      <g transform="translate(20.878125 232.037344) scale(0.1 -0.1)">
       <use xlink:href="#DejaVuSans-30"/>
       <use xlink:href="#DejaVuSans-2e" transform="translate(63.623047 0)"/>
       <use xlink:href="#DejaVuSans-34" transform="translate(95.410156 0)"/>
      </g>
     </g>
    </g>
    <g id="ytick_4">
     <g id="line2d_19">
      <path d="M 43.78125 164.878125 
L 490.18125 164.878125 
" clip-path="url(#pf1282744ec)" style="fill: none; stroke: #b0b0b0; stroke-width: 0.8; stroke-linecap: square"/>
     </g>
     <g id="line2d_20">
      <g>
       <use xlink:href="#m5e0c45b685" x="43.78125" y="164.878125" style="stroke: #000000; stroke-width: 0.8"/>
      </g>
     </g>
     <g id="text_11">
      <!-- 0.6 -->
      <g transform="translate(20.878125 168.677344) scale(0.1 -0.1)">
       <use xlink:href="#DejaVuSans-30"/>
       <use xlink:href="#DejaVuSans-2e" transform="translate(63.623047 0)"/>
       <use xlink:href="#DejaVuSans-36" transform="translate(95.410156 0)"/>
      </g>
     </g>
    </g>
    <g id="ytick_5">
     <g id="line2d_21">
      <path d="M 43.78125 101.518125 
L 490.18125 101.518125 
" clip-path="url(#pf1282744ec)" style="fill: none; stroke: #b0b0b0; stroke-width: 0.8; stroke-linecap: square"/>
     </g>
     <g id="line2d_22">
      <g>
       <use xlink:href="#m5e0c45b685" x="43.78125" y="101.518125" style="stroke: #000000; stroke-width: 0.8"/>
      </g>
     </g>
     <g id="text_12">
      <!-- 0.8 -->
      <g transform="translate(20.878125 105.317344) scale(0.1 -0.1)">
       <use xlink:href="#DejaVuSans-30"/>
       <use xlink:href="#DejaVuSans-2e" transform="translate(63.623047 0)"/>
       <use xlink:href="#DejaVuSans-38" transform="translate(95.410156 0)"/>
      </g>
     </g>
    </g>
    <g id="ytick_6">
     <g id="line2d_23">
      <path d="M 43.78125 38.158125 
L 490.18125 38.158125 
" clip-path="url(#pf1282744ec)" style="fill: none; stroke: #b0b0b0; stroke-width: 0.8; stroke-linecap: square"/>
     </g>
     <g id="line2d_24">
      <g>
       <use xlink:href="#m5e0c45b685" x="43.78125" y="38.158125" style="stroke: #000000; stroke-width: 0.8"/>
      </g>
     </g>
     <g id="text_13">
      <!-- 1.0 -->
      <g transform="translate(20.878125 41.957344) scale(0.1 -0.1)">
       <use xlink:href="#DejaVuSans-31"/>
       <use xlink:href="#DejaVuSans-2e" transform="translate(63.623047 0)"/>
       <use xlink:href="#DejaVuSans-30" transform="translate(95.410156 0)"/>
      </g>
     </g>
    </g>
    <g id="text_14">
     <!-- True Positive Rate -->
     <g transform="translate(14.798438 233.167812) rotate(-90) scale(0.1 -0.1)">
      <defs>
       <path id="DejaVuSans-54" d="M -19 4666 
L 3928 4666 
L 3928 4134 
L 2272 4134 
L 2272 0 
L 1638 0 
L 1638 4134 
L -19 4134 
L -19 4666 
z
" transform="scale(0.015625)"/>
       <path id="DejaVuSans-72" d="M 2631 2963 
Q 2534 3019 2420 3045 
Q 2306 3072 2169 3072 
Q 1681 3072 1420 2755 
Q 1159 2438 1159 1844 
L 1159 0 
L 581 0 
L 581 3500 
L 1159 3500 
L 1159 2956 
Q 1341 3275 1631 3429 
Q 1922 3584 2338 3584 
Q 2397 3584 2469 3576 
Q 2541 3569 2628 3553 
L 2631 2963 
z
" transform="scale(0.015625)"/>
       <path id="DejaVuSans-75" d="M 544 1381 
L 544 3500 
L 1119 3500 
L 1119 1403 
Q 1119 906 1312 657 
Q 1506 409 1894 409 
Q 2359 409 2629 706 
Q 2900 1003 2900 1516 
L 2900 3500 
L 3475 3500 
L 3475 0 
L 2900 0 
L 2900 538 
Q 2691 219 2414 64 
Q 2138 -91 1772 -91 
Q 1169 -91 856 284 
Q 544 659 544 1381 
z
M 1991 3584 
L 1991 3584 
z
" transform="scale(0.015625)"/>
      </defs>
      <use xlink:href="#DejaVuSans-54"/>
      <use xlink:href="#DejaVuSans-72" transform="translate(46.333984 0)"/>
      <use xlink:href="#DejaVuSans-75" transform="translate(87.447266 0)"/>
      <use xlink:href="#DejaVuSans-65" transform="translate(150.826172 0)"/>
      <use xlink:href="#DejaVuSans-20" transform="translate(212.349609 0)"/>
      <use xlink:href="#DejaVuSans-50" transform="translate(244.136719 0)"/>
      <use xlink:href="#DejaVuSans-6f" transform="translate(300.814453 0)"/>
      <use xlink:href="#DejaVuSans-73" transform="translate(361.996094 0)"/>
      <use xlink:href="#DejaVuSans-69" transform="translate(414.095703 0)"/>
      <use xlink:href="#DejaVuSans-74" transform="translate(441.878906 0)"/>
      <use xlink:href="#DejaVuSans-69" transform="translate(481.087891 0)"/>
      <use xlink:href="#DejaVuSans-76" transform="translate(508.871094 0)"/>
      <use xlink:href="#DejaVuSans-65" transform="translate(568.050781 0)"/>
      <use xlink:href="#DejaVuSans-20" transform="translate(629.574219 0)"/>
      <use xlink:href="#DejaVuSans-52" transform="translate(661.361328 0)"/>
      <use xlink:href="#DejaVuSans-61" transform="translate(728.59375 0)"/>
      <use xlink:href="#DejaVuSans-74" transform="translate(789.873047 0)"/>
      <use xlink:href="#DejaVuSans-65" transform="translate(829.082031 0)"/>
     </g>
    </g>
   </g>
   <g id="line2d_25">
    <path d="M 43.78125 354.958125 
L 43.891236 337.870746 
L 43.89432 337.828028 
L 44.005334 332.27463 
L 44.008418 332.189193 
L 44.119432 327.31929 
L 44.12046 327.31929 
L 44.227362 321.979484 
L 44.23353 321.894047 
L 44.344544 316.895989 
L 44.347627 316.895989 
L 44.458642 312.709581 
L 44.460697 312.666863 
L 44.571711 307.79696 
L 44.576851 307.711523 
L 44.687865 303.140649 
L 44.694033 303.097931 
L 44.805047 299.723174 
L 44.814298 299.680455 
L 44.925312 296.861038 
L 44.934563 296.775601 
L 45.045577 293.657154 
L 45.050717 293.571717 
L 45.159675 290.154242 
L 45.162759 290.154242 
L 45.273773 286.822203 
L 45.276857 286.822203 
L 45.387871 283.447445 
L 45.391982 283.447445 
L 45.502996 280.158125 
L 45.514303 280.115407 
L 45.623262 277.894047 
L 45.683908 276.911523 
L 45.793894 273.793076 
L 45.803146 273.70764 
L 45.90902 270.930941 
L 45.911076 270.930941 
L 46.281123 261.490164 
L 46.297569 261.404727 
L 46.407556 259.140649 
L 46.410639 259.055212 
L 46.520626 256.492106 
L 46.527821 256.449387 
L 46.638835 254.313465 
L 46.642947 254.228028 
L 46.753961 251.237737 
L 46.754989 251.237737 
L 46.866003 249.443562 
L 46.87731 249.358125 
L 46.987296 247.478513 
L 46.991408 247.393076 
L 47.096254 245.64162 
L 47.105505 245.64162 
L 47.216519 243.762008 
L 47.219603 243.762008 
L 47.328561 241.626086 
L 47.336785 241.540649 
L 47.447799 239.87463 
L 47.453966 239.789193 
L 47.558813 238.336766 
L 47.579371 238.251329 
L 47.690385 236.713465 
L 47.693469 236.628028 
L 47.803455 234.449387 
L 47.824013 234.36395 
L 47.926804 232.014436 
L 47.942223 231.928999 
L 48.053237 230.134824 
L 48.070711 230.049387 
L 48.176586 228.554242 
L 48.202283 228.511523 
L 48.304046 227.22997 
L 48.324605 227.144533 
L 48.435619 225.435795 
L 48.447954 225.350358 
L 48.558968 223.855212 
L 48.574386 223.769775 
L 48.6854 222.061038 
L 48.69054 221.975601 
L 48.79847 220.864921 
L 48.812861 220.779484 
L 48.914624 218.857154 
L 48.930042 218.771717 
L 49.041057 217.105698 
L 49.04928 217.020261 
L 49.159266 215.482397 
L 49.166461 215.39696 
L 49.27542 214.02997 
L 49.282615 213.987251 
L 49.392601 212.748416 
L 49.400824 212.662979 
L 49.510811 211.765892 
L 49.52109 211.680455 
L 49.630048 210.057154 
L 49.635188 210.014436 
L 49.745174 208.690164 
L 49.757509 208.604727 
L 49.868523 207.451329 
L 49.87469 207.40861 
L 49.979537 205.742591 
L 49.998039 205.657154 
L 50.102886 204.461038 
L 50.111109 204.375601 
L 50.218012 203.179484 
L 50.245765 203.094047 
L 50.353695 201.385309 
L 50.355751 201.385309 
L 50.374254 201.299873 
L 50.48424 199.975601 
L 50.499658 199.890164 
L 50.607589 199.121232 
L 50.614784 199.035795 
L 50.712435 197.967834 
L 50.731966 197.882397 
L 50.840924 195.917348 
L 50.850175 195.831911 
L 50.960161 194.76395 
L 50.966329 194.678513 
L 51.072203 193.439678 
L 51.08351 193.354242 
L 51.193496 192.542591 
L 51.206859 192.457154 
L 51.317873 191.688222 
L 51.324041 191.602785 
L 51.428887 190.193076 
L 51.44225 190.10764 
L 51.545041 188.527057 
L 51.557376 188.44162 
L 51.666334 187.245504 
L 51.679697 187.160067 
L 51.787627 185.280455 
L 51.817437 185.195018 
L 51.926395 183.614436 
L 51.957232 183.528999 
L 52.068246 182.418319 
L 52.085721 182.332882 
L 52.188512 181.222203 
L 52.214209 181.179484 
L 52.319056 180.19696 
L 52.333447 180.111523 
L 52.442405 178.616377 
L 52.47427 178.530941 
L 52.580145 177.377542 
L 52.593508 177.334824 
L 52.704522 176.181426 
L 52.735359 176.095989 
L 52.840206 174.728999 
L 52.859736 174.643562 
L 52.967666 173.020261 
L 52.977945 172.934824 
L 53.080736 171.866863 
L 53.113629 171.781426 
L 53.223615 170.585309 
L 53.238006 170.499873 
L 53.346964 169.346475 
L 53.359299 169.261038 
L 53.461062 168.321232 
L 53.479564 168.235795 
L 53.588523 166.612494 
L 53.608053 166.527057 
L 53.718039 165.373659 
L 53.73243 165.288222 
L 53.843444 163.96395 
L 53.856807 163.878513 
L 53.966793 162.938708 
L 53.982212 162.853271 
L 54.092198 162.04162 
L 54.105561 161.956183 
L 54.205268 161.016377 
L 54.238161 160.930941 
L 54.349175 160.033853 
L 54.385152 159.948416 
L 54.486915 159.136766 
L 54.503361 159.051329 
L 54.611291 157.812494 
L 54.630822 157.727057 
L 54.732585 156.915407 
L 54.765478 156.82997 
L 54.84771 155.804727 
L 54.900134 155.71929 
L 55.006008 154.736766 
L 55.023483 154.651329 
L 55.134497 153.626086 
L 55.144776 153.540649 
L 55.25065 152.387251 
L 55.259902 152.301814 
L 55.364748 151.447445 
L 55.398669 151.362008 
L 55.5066 150.721232 
L 55.546688 150.635795 
L 55.656674 149.9523 
L 55.687511 149.866863 
L 55.798525 148.628028 
L 55.808805 148.542591 
L 55.917763 147.303756 
L 55.935237 147.218319 
L 56.041112 146.662979 
L 56.064754 146.577542 
L 56.17474 145.509581 
L 56.200438 145.424144 
L 56.310424 144.569775 
L 56.328926 144.484339 
L 56.43994 143.416377 
L 56.453303 143.330941 
L 56.551982 142.476572 
L 56.588987 142.433853 
L 56.700001 141.451329 
L 56.71028 141.40861 
L 56.819238 140.169775 
L 56.844936 140.084339 
L 56.95595 139.016377 
L 57.003234 138.930941 
L 57.11322 137.820261 
L 57.125555 137.734824 
L 57.233485 136.837737 
L 57.251988 136.7523 
L 57.3445 136.325115 
L 57.368141 136.282397 
L 57.4771 135.171717 
L 57.515132 135.08628 
L 57.626146 134.360067 
L 57.656984 134.27463 
L 57.765942 133.292106 
L 57.782388 133.206669 
L 57.884151 132.053271 
L 57.920128 131.967834 
L 58.019835 130.942591 
L 58.040393 130.899873 
L 58.151408 130.002785 
L 58.168882 129.917348 
L 58.265505 129.191135 
L 58.301482 129.105698 
L 58.403245 128.294047 
L 58.43511 128.251329 
L 58.543041 127.525115 
L 58.558459 127.439678 
L 58.669473 126.628028 
L 58.691059 126.542591 
L 58.801046 125.773659 
L 58.819548 125.688222 
L 58.928506 125.090164 
L 58.969622 125.004727 
L 59.078581 124.36395 
L 59.090916 124.278513 
L 59.20193 123.509581 
L 59.218376 123.424144 
L 59.328362 122.655212 
L 59.353032 122.569775 
L 59.455823 121.971717 
L 59.4918 121.88628 
L 59.598702 121.160067 
L 59.62954 121.07463 
L 59.740554 120.220261 
L 59.774475 120.134824 
L 59.874182 119.1523 
L 59.924549 119.066863 
L 60.035563 118.04162 
L 60.057149 117.956183 
L 60.158912 117.315407 
L 60.20928 117.22997 
L 60.319266 116.589193 
L 60.352159 116.503756 
L 60.455978 115.56395 
L 60.47962 115.478513 
L 60.590634 114.7523 
L 60.603997 114.666863 
L 60.713983 114.239678 
L 60.733513 114.154242 
L 60.841443 113.428028 
L 60.85789 113.342591 
L 60.96582 112.82997 
L 60.99563 112.744533 
L 61.106644 112.061038 
L 61.116923 112.018319 
L 61.223825 111.633853 
L 61.25569 111.548416 
L 61.360537 110.864921 
L 61.391374 110.779484 
L 61.499305 110.138708 
L 61.530142 110.053271 
L 61.631905 109.455212 
L 61.646296 109.369775 
L 61.748059 108.515407 
L 61.774784 108.42997 
L 61.885798 107.87463 
L 61.910468 107.789193 
L 62.021482 106.934824 
L 62.063626 106.849387 
L 62.166417 106.20861 
L 62.216785 106.123174 
L 62.318548 105.439678 
L 62.346301 105.354242 
L 62.448064 104.713465 
L 62.479929 104.628028 
L 62.589915 104.200843 
L 62.613557 104.115407 
L 62.723543 103.517348 
L 62.755409 103.47463 
L 62.862311 102.705698 
L 62.876702 102.662979 
L 62.979493 101.723174 
L 63.011358 101.637737 
L 63.09359 101.295989 
L 63.119288 101.295989 
L 63.13779 101.210552 
L 63.242637 100.697931 
L 63.29506 100.612494 
L 63.401963 100.142591 
L 63.451303 100.057154 
L 63.558205 99.587251 
L 63.591098 99.501814 
L 63.670247 99.117348 
L 63.723698 99.031911 
L 63.829573 98.562008 
L 63.85527 98.476572 
L 63.964229 97.835795 
L 63.987871 97.793076 
L 64.085522 97.451329 
L 64.117387 97.365892 
L 64.212983 97.109581 
L 64.275685 97.024144 
L 64.375392 96.511523 
L 64.410341 96.426086 
L 64.507992 95.956183 
L 64.573778 95.870746 
L 64.682737 95.48628 
L 64.707406 95.443562 
L 64.816365 94.717348 
L 64.847202 94.631911 
L 64.999332 93.649387 
L 65.031197 93.56395 
L 65.125765 93.179484 
L 65.161742 93.094047 
L 65.256309 92.581426 
L 65.300509 92.495989 
L 65.407412 91.812494 
L 65.438249 91.727057 
L 65.530761 91.08628 
L 65.562626 91.000843 
L 65.641775 90.616377 
L 65.718868 90.530941 
L 65.801101 90.189193 
L 65.870999 90.103756 
L 65.94398 89.847445 
L 66.001543 89.762008 
L 66.10125 89.377542 
L 66.174231 89.292106 
L 66.282162 88.694047 
L 66.296553 88.60861 
L 66.406539 87.882397 
L 66.418874 87.839678 
L 66.524748 87.24162 
L 66.556613 87.156183 
L 66.665572 86.472688 
L 66.699493 86.387251 
L 66.7992 86.130941 
L 66.840316 86.045504 
L 66.945163 85.661038 
L 66.979084 85.575601 
L 67.078791 85.276572 
L 67.140465 85.191135 
L 67.24634 84.76395 
L 67.262786 84.678513 
L 67.370717 84.123174 
L 67.383052 84.080455 
L 67.489954 83.653271 
L 67.521819 83.567834 
L 67.625638 83.055212 
L 67.62975 83.055212 
L 67.652364 82.969775 
L 67.763378 82.371717 
L 67.822996 82.28628 
L 67.879531 81.901814 
L 67.986434 81.816377 
L 68.067639 81.431911 
L 68.119034 81.389193 
L 68.230048 80.833853 
L 68.259857 80.791135 
L 68.363676 80.492106 
L 68.420211 80.406669 
L 68.511695 79.936766 
L 68.553839 79.851329 
L 68.654574 79.338708 
L 68.7255 79.253271 
L 68.830346 78.868805 
L 68.911551 78.783368 
L 69.021537 78.228028 
L 69.050319 78.142591 
L 69.151054 77.672688 
L 69.190114 77.587251 
L 69.282626 77.245504 
L 69.367942 77.160067 
L 69.454287 76.690164 
L 69.488208 76.604727 
L 69.568385 76.220261 
L 69.632115 76.134824 
L 69.716403 75.793076 
L 69.773966 75.70764 
L 69.880869 75.280455 
L 69.918901 75.195018 
L 70.005246 74.853271 
L 70.029915 74.853271 
L 70.096729 74.767834 
L 70.19952 74.127057 
L 70.262223 74.04162 
L 70.371181 73.785309 
L 70.418465 73.699873 
L 70.525367 73.571717 
L 70.562372 73.48628 
L 70.625074 73.187251 
L 70.696 73.101814 
L 70.785428 72.845504 
L 70.909805 72.760067 
L 71.01054 72.375601 
L 71.124638 72.290164 
L 71.208926 71.948416 
L 71.303494 71.862979 
L 71.404229 71.521232 
L 71.426843 71.435795 
L 71.530661 71.094047 
L 71.553275 71.00861 
L 71.651955 70.7523 
L 71.701294 70.666863 
L 71.808197 70.410552 
L 71.866787 70.325115 
L 71.962383 70.068805 
L 72.084704 69.983368 
L 72.182355 69.769775 
L 72.265616 69.684339 
L 72.342709 69.428028 
L 72.430081 69.342591 
L 72.530816 69.043562 
L 72.61716 68.958125 
L 72.724063 68.616377 
L 72.738454 68.530941 
L 72.840217 68.231911 
L 72.900863 68.146475 
L 72.98104 67.676572 
L 73.039631 67.591135 
L 73.119808 67.505698 
L 73.127003 67.505698 
L 73.209236 67.420261 
L 73.318194 67.035795 
L 73.373701 66.950358 
L 73.47238 66.651329 
L 73.525831 66.565892 
L 73.625538 66.309581 
L 73.67899 66.224144 
L 73.781781 65.925115 
L 73.815702 65.839678 
L 73.918492 65.540649 
L 73.997641 65.455212 
L 74.103516 64.857154 
L 74.186776 64.771717 
L 74.290595 64.472688 
L 74.355353 64.387251 
L 74.443753 64.173659 
L 74.535237 64.088222 
L 74.645223 63.960067 
L 74.758293 63.87463 
L 74.845666 63.490164 
L 74.97621 63.404727 
L 75.062554 63.191135 
L 75.132452 63.105698 
L 75.214685 62.977542 
L 75.307196 62.892106 
L 75.402792 62.50764 
L 75.460355 62.422203 
L 75.562118 62.037737 
L 75.679299 61.9523 
L 75.78209 61.695989 
L 75.841709 61.610552 
L 75.937304 61.354242 
L 76.060653 61.268805 
L 76.159332 60.969775 
L 76.211756 60.884339 
L 76.230258 60.756183 
L 76.255956 60.756183 
L 76.370054 60.670746 
L 76.461537 60.371717 
L 76.476956 60.371717 
L 76.521156 60.328999 
L 76.570496 60.072688 
L 76.694873 59.987251 
L 76.785328 59.773659 
L 76.885036 59.688222 
L 76.955961 59.560067 
L 77.108092 59.47463 
L 77.183129 59.346475 
L 77.296199 59.261038 
L 77.327036 59.175601 
L 77.353762 59.175601 
L 77.41852 59.090164 
L 77.505892 58.833853 
L 77.585041 58.748416 
L 77.68886 58.492106 
L 77.706334 58.406669 
L 77.759786 58.150358 
L 77.876967 58.064921 
L 77.986953 57.723174 
L 78.126749 57.637737 
L 78.210009 57.424144 
L 78.285047 57.338708 
L 78.361112 56.99696 
L 78.403256 56.99696 
L 78.410451 56.826086 
L 78.529689 56.740649 
L 78.591363 56.527057 
L 78.707517 56.44162 
L 78.817503 56.185309 
L 78.921322 56.099873 
L 78.993275 55.928999 
L 79.082703 55.843562 
L 79.190634 55.672688 
L 79.252308 55.587251 
L 79.302676 55.416377 
L 79.415746 55.330941 
L 79.519564 55.031911 
L 79.525732 55.031911 
L 79.554513 54.946475 
L 79.618244 54.775601 
L 79.709727 54.690164 
L 79.778597 54.562008 
L 79.90503 54.476572 
L 79.985207 54.220261 
L 80.102388 54.134824 
L 80.102388 54.092106 
L 80.240128 54.006669 
L 80.339835 53.878513 
L 80.4159 53.793076 
L 80.513552 53.622203 
L 80.590645 53.536766 
L 80.590645 53.494047 
L 80.752026 53.40861 
L 80.806506 53.237737 
L 80.96172 53.1523 
L 81.035729 52.853271 
L 81.257757 52.767834 
L 81.296818 52.59696 
L 81.373911 52.511523 
L 81.432502 52.426086 
L 81.592855 52.340649 
L 81.70387 52.127057 
L 81.936177 52.04162 
L 82.0328 51.785309 
L 82.157177 51.699873 
L 82.247633 51.48628 
L 82.336033 51.400843 
L 82.433684 51.101814 
L 82.466577 51.016377 
L 82.566285 50.760067 
L 82.733834 50.67463 
L 82.733834 50.631911 
L 83.027815 50.546475 
L 83.12855 50.418319 
L 83.220034 50.332882 
L 83.314602 50.247445 
L 83.435895 50.162008 
L 83.525323 50.076572 
L 83.642504 49.991135 
L 83.745295 49.862979 
L 83.781272 49.777542 
L 83.802858 49.606669 
L 84.010496 49.521232 
L 84.010496 49.478513 
L 84.092728 49.478513 
L 84.283919 49.393076 
L 84.372319 49.222203 
L 84.426798 49.136766 
L 84.484361 48.965892 
L 84.695083 48.880455 
L 84.772176 48.666863 
L 84.975702 48.581426 
L 85.058962 48.453271 
L 85.177172 48.367834 
L 85.180255 48.239678 
L 85.370418 48.154242 
L 85.417702 48.026086 
L 85.481432 48.026086 
L 85.550302 47.983368 
L 85.655149 47.727057 
L 85.724019 47.64162 
L 85.724019 47.598902 
L 85.825782 47.598902 
L 86.065284 47.513465 
L 86.135182 47.428028 
L 86.331513 47.342591 
L 86.331513 47.299873 
L 86.487755 47.214436 
L 86.499062 47.08628 
L 86.516536 47.08628 
L 86.764262 47.000843 
L 86.847522 46.82997 
L 86.974983 46.744533 
L 87.014044 46.659096 
L 87.174397 46.573659 
L 87.216542 46.445504 
L 87.272049 46.445504 
L 87.374839 46.360067 
L 87.414928 46.27463 
L 87.799366 46.189193 
L 87.874403 46.061038 
L 88.045036 45.975601 
L 88.151938 45.762008 
L 88.307152 45.676572 
L 88.394524 45.591135 
L 88.653557 45.505698 
L 88.728595 45.420261 
L 89.037995 45.334824 
L 89.122283 45.16395 
L 89.306279 45.078513 
L 89.306279 45.035795 
L 89.565312 44.950358 
L 89.565312 44.90764 
L 89.619791 44.90764 
L 89.90555 44.822203 
L 89.976475 44.736766 
L 90.183085 44.651329 
L 90.243731 44.523174 
L 90.451369 44.437737 
L 90.451369 44.395018 
L 90.558271 44.395018 
L 90.669285 44.309581 
L 90.669285 44.266863 
L 90.731988 44.266863 
L 91.117453 44.181426 
L 91.216133 44.010552 
L 91.325091 43.925115 
L 91.398072 43.79696 
L 91.593375 43.711523 
L 91.677663 43.626086 
L 92.018929 43.540649 
L 92.018929 43.497931 
L 92.603809 43.412494 
L 92.698376 43.24162 
L 93.077674 43.156183 
L 93.161963 43.028028 
L 93.335679 42.942591 
L 93.351098 42.857154 
L 93.635829 42.771717 
L 93.709838 42.68628 
L 94.164173 42.600843 
L 94.164173 42.558125 
L 94.487965 42.472688 
L 94.487965 42.42997 
L 94.553751 42.42997 
L 95.065649 42.344533 
L 95.156105 42.216377 
L 95.45317 42.130941 
L 95.45317 42.088222 
L 95.860222 42.002785 
L 95.860222 41.960067 
L 96.346423 41.87463 
L 96.360813 41.746475 
L 96.766837 41.661038 
L 96.811037 41.575601 
L 97.093712 41.490164 
L 97.16361 41.362008 
L 97.196503 41.362008 
L 97.715597 41.276572 
L 97.76802 41.191135 
L 97.774187 41.191135 
L 98.00855 41.105698 
L 98.050695 40.977542 
L 98.684914 40.892106 
L 98.684914 40.849387 
L 99.634701 40.76395 
L 99.655259 40.678513 
L 99.947185 40.593076 
L 99.981106 40.464921 
L 100.113706 40.379484 
L 100.113706 40.336766 
L 100.169214 40.336766 
L 100.534121 40.251329 
L 100.534121 40.20861 
L 100.594768 40.20861 
L 101.098443 40.123174 
L 101.179647 39.995018 
L 101.209457 39.995018 
L 101.565113 39.909581 
L 101.565113 39.866863 
L 101.949551 39.781426 
L 101.9845 39.695989 
L 102.453226 39.610552 
L 102.453226 39.567834 
L 102.561156 39.567834 
L 103.019603 39.482397 
L 103.019603 39.439678 
L 104.847224 39.354242 
L 104.88834 39.268805 
L 105.659272 39.183368 
L 105.659272 39.140649 
L 105.676746 39.140649 
L 106.677929 39.055212 
L 106.677929 39.012494 
L 107.063394 38.927057 
L 107.162073 38.84162 
L 110.353729 38.756183 
L 110.353729 38.713465 
L 110.37737 38.713465 
L 111.443311 38.628028 
L 111.443311 38.585309 
L 113.31616 38.499873 
L 113.31616 38.457154 
L 113.356249 38.457154 
L 114.322482 38.371717 
L 114.322482 38.328999 
L 119.523698 38.243562 
L 119.523698 38.200843 
L 490.18125 38.158125 
L 490.18125 38.158125 
" clip-path="url(#pf1282744ec)" style="fill: none; stroke: #ff8c00; stroke-width: 2; stroke-linecap: square"/>
   </g>
   <g id="line2d_26">
    <path d="M 43.78125 354.958125 
L 43.892264 307.668805 
L 43.89432 307.668805 
L 44.005334 295.451329 
L 44.00739 295.365892 
L 44.118404 287.249387 
L 44.119432 287.249387 
L 44.230446 281.140649 
L 44.231474 281.140649 
L 44.342488 274.989193 
L 44.345572 274.903756 
L 44.456586 271.101814 
L 44.460697 271.016377 
L 44.568628 266.872688 
L 44.584046 266.82997 
L 44.694033 263.327057 
L 44.696088 263.327057 
L 44.807102 260.464921 
L 44.812242 260.464921 
L 44.922228 257.517348 
L 44.927368 257.431911 
L 45.037354 254.954242 
L 45.044549 254.868805 
L 45.155563 252.348416 
L 45.157619 252.262979 
L 45.26555 248.930941 
L 45.274801 248.845504 
L 45.379647 246.880455 
L 45.391982 246.795018 
L 45.497857 245.171717 
L 45.517387 245.08628 
L 45.626345 243.078513 
L 45.637652 242.993076 
L 45.746611 240.942591 
L 45.753806 240.942591 
L 45.863792 238.76395 
L 45.870987 238.678513 
L 45.982002 236.884339 
L 45.999476 236.798902 
L 46.106378 235.431911 
L 46.119741 235.346475 
L 46.229727 233.210552 
L 46.237951 233.125115 
L 46.347937 231.758125 
L 46.352049 231.672688 
L 46.459979 230.51929 
L 46.466146 230.433853 
L 46.572021 228.511523 
L 46.58744 228.426086 
L 46.69537 226.589193 
L 46.711816 226.503756 
L 46.816663 225.30764 
L 46.831054 225.222203 
L 46.936928 224.282397 
L 46.943096 224.282397 
L 47.044859 222.488222 
L 47.065417 222.445504 
L 47.175403 221.249387 
L 47.182598 221.16395 
L 47.293613 219.967834 
L 47.315199 219.882397 
L 47.424157 218.643562 
L 47.459106 218.558125 
L 47.56498 217.362008 
L 47.577315 217.276572 
L 47.686273 215.738708 
L 47.70272 215.653271 
L 47.808595 214.371717 
L 47.826069 214.28628 
L 47.926804 213.303756 
L 47.946334 213.261038 
L 48.053237 211.894047 
L 48.069683 211.80861 
L 48.175558 210.740649 
L 48.209479 210.655212 
L 48.318437 209.245504 
L 48.3318 209.202785 
L 48.431507 207.835795 
L 48.455149 207.793076 
L 48.559996 206.639678 
L 48.575414 206.554242 
L 48.682317 205.48628 
L 48.695679 205.400843 
L 48.801554 204.033853 
L 48.819028 203.948416 
L 48.924903 202.880455 
L 48.941349 202.795018 
L 49.050308 202.154242 
L 49.087312 202.068805 
L 49.189075 201.470746 
L 49.221968 201.385309 
L 49.326815 200.659096 
L 49.337094 200.573659 
L 49.448108 199.377542 
L 49.462499 199.292106 
L 49.552955 198.480455 
L 49.58482 198.437737 
L 49.693778 197.711523 
L 49.720504 197.626086 
L 49.813016 197.070746 
L 49.844881 197.070746 
L 49.952811 195.789193 
L 50.000095 195.703756 
L 50.111109 194.977542 
L 50.114193 194.892106 
L 50.223151 194.20861 
L 50.268379 194.123174 
L 50.379393 193.140649 
L 50.392756 193.055212 
L 50.501714 191.987251 
L 50.519189 191.987251 
L 50.627119 191.175601 
L 50.66104 191.090164 
L 50.761775 190.36395 
L 50.784389 190.278513 
L 50.889236 189.637737 
L 50.921101 189.5523 
L 51.026975 188.697931 
L 51.046506 188.612494 
L 51.153408 187.971717 
L 51.19658 187.88628 
L 51.302455 187.160067 
L 51.352822 187.07463 
L 51.459725 186.348416 
L 51.49159 186.262979 
L 51.590269 185.70764 
L 51.615967 185.622203 
L 51.713618 184.938708 
L 51.748567 184.853271 
L 51.855469 184.255212 
L 51.897614 184.169775 
L 52.0076 183.443562 
L 52.033298 183.358125 
L 52.134033 182.461038 
L 52.162814 182.375601 
L 52.260465 181.606669 
L 52.304665 181.521232 
L 52.413624 180.495989 
L 52.438293 180.410552 
L 52.521554 179.983368 
L 52.551363 179.940649 
L 52.653126 179.08628 
L 52.729191 179.000843 
L 52.836094 178.189193 
L 52.875154 178.103756 
L 52.983085 177.377542 
L 52.993364 177.334824 
L 53.095127 176.60861 
L 53.120824 176.523174 
L 53.224643 176.053271 
L 53.251369 175.967834 
L 53.355188 175.284339 
L 53.405555 175.198902 
L 53.513485 174.600843 
L 53.580299 174.515407 
L 53.667672 173.831911 
L 53.698509 173.746475 
L 53.804383 172.806669 
L 53.868114 172.721232 
L 53.979128 171.909581 
L 53.99763 171.824144 
L 54.106588 171.268805 
L 54.170319 171.183368 
L 54.272082 170.670746 
L 54.308059 170.585309 
L 54.412905 170.200843 
L 54.493082 170.115407 
L 54.573259 169.645504 
L 54.63185 169.560067 
L 54.736696 168.91929 
L 54.78912 168.833853 
L 54.900134 168.406669 
L 54.959752 168.321232 
L 55.062543 167.936766 
L 55.088241 167.851329 
L 55.196171 167.210552 
L 55.240371 167.125115 
L 55.345218 166.484339 
L 55.392502 166.398902 
L 55.485013 165.971717 
L 55.536409 165.88628 
L 55.646395 165.459096 
L 55.693679 165.373659 
L 55.804693 164.732882 
L 55.843753 164.647445 
L 55.939349 164.348416 
L 55.972242 164.262979 
L 56.077089 163.70764 
L 56.140819 163.622203 
L 56.244638 162.938708 
L 56.264168 162.853271 
L 56.373126 162.383368 
L 56.418354 162.297931 
L 56.519089 161.913465 
L 56.548899 161.828028 
L 56.654773 161.443562 
L 56.701029 161.358125 
L 56.788401 161.059096 
L 56.84802 160.973659 
L 56.956978 160.503756 
L 56.969313 160.418319 
L 57.077243 159.734824 
L 57.11836 159.649387 
L 57.227318 158.965892 
L 57.286937 158.880455 
L 57.397951 158.495989 
L 57.438039 158.410552 
L 57.549053 157.897931 
L 57.615867 157.812494 
L 57.684737 157.428028 
L 57.752579 157.342591 
L 57.8307 156.915407 
L 57.900598 156.82997 
L 58.000305 156.360067 
L 58.057868 156.27463 
L 58.168882 155.804727 
L 58.213082 155.762008 
L 58.314845 155.16395 
L 58.343626 155.078513 
L 58.442306 154.736766 
L 58.47931 154.651329 
L 58.581073 154.095989 
L 58.624245 154.010552 
L 58.729092 153.626086 
L 58.797962 153.540649 
L 58.897669 153.24162 
L 58.941869 153.156183 
L 59.049799 152.857154 
L 59.109418 152.771717 
L 59.205013 152.472688 
L 59.293414 152.387251 
L 59.4034 151.831911 
L 59.495912 151.746475 
L 59.59973 151.191135 
L 59.616177 151.105698 
L 59.71794 150.593076 
L 59.780642 150.50764 
L 59.8896 150.165892 
L 59.915298 150.080455 
L 60.015005 149.738708 
L 60.070512 149.653271 
L 60.163024 149.183368 
L 60.263759 149.097931 
L 60.337768 148.84162 
L 60.458034 148.756183 
L 60.554657 148.499873 
L 60.588578 148.414436 
L 60.682118 148.158125 
L 60.728374 148.072688 
L 60.823969 147.602785 
L 60.963765 147.517348 
L 61.067583 147.132882 
L 61.102532 147.047445 
L 61.208407 146.492106 
L 61.246439 146.406669 
L 61.356425 146.150358 
L 61.371844 146.064921 
L 61.476691 145.765892 
L 61.568175 145.680455 
L 61.662742 145.295989 
L 61.730584 145.210552 
L 61.818984 144.99696 
L 61.922803 144.911523 
L 62.030733 144.569775 
L 62.059515 144.527057 
L 62.149971 144.228028 
L 62.22398 144.142591 
L 62.334994 143.758125 
L 62.409004 143.672688 
L 62.512822 143.330941 
L 62.546743 143.245504 
L 62.649534 142.989193 
L 62.674204 142.903756 
L 62.781106 142.647445 
L 62.809888 142.562008 
L 62.896232 142.391135 
L 62.977437 142.305698 
L 63.083311 141.921232 
L 63.106953 141.835795 
L 63.210772 141.536766 
L 63.299172 141.494047 
L 63.39374 141.195018 
L 63.459526 141.109581 
L 63.563345 140.639678 
L 63.627075 140.554242 
L 63.729866 140.212494 
L 63.773038 140.127057 
L 63.863494 139.998902 
L 63.99301 139.913465 
L 64.085522 139.614436 
L 64.126638 139.528999 
L 64.19962 139.22997 
L 64.257183 139.144533 
L 64.340443 138.845504 
L 64.37642 138.760067 
L 64.444262 138.375601 
L 64.519299 138.290164 
L 64.629285 137.862979 
L 64.650871 137.777542 
L 64.757774 137.521232 
L 64.830755 137.435795 
L 64.940742 137.222203 
L 64.977746 137.136766 
L 65.085677 136.666863 
L 65.130905 136.581426 
L 65.239863 136.068805 
L 65.402272 135.983368 
L 65.508147 135.64162 
L 65.562626 135.556183 
L 65.659249 135.385309 
L 65.746622 135.299873 
L 65.849412 135.043562 
L 65.932673 134.958125 
L 66.015934 134.530941 
L 66.14545 134.445504 
L 66.206097 134.317348 
L 66.328418 134.231911 
L 66.421957 133.975601 
L 66.52372 133.890164 
L 66.620344 133.591135 
L 66.738553 133.505698 
L 66.83826 133.292106 
L 66.901991 133.206669 
L 67.00067 132.950358 
L 67.046926 132.864921 
L 67.156912 132.523174 
L 67.178498 132.437737 
L 67.263814 132.138708 
L 67.361466 132.053271 
L 67.438559 131.754242 
L 67.481731 131.668805 
L 67.571159 131.284339 
L 67.660587 131.198902 
L 67.728429 131.070746 
L 67.803466 130.985309 
L 67.910369 130.68628 
L 68.089225 130.600843 
L 68.179681 130.216377 
L 68.261913 130.130941 
L 68.344146 129.960067 
L 68.451048 129.87463 
L 68.529169 129.575601 
L 68.610374 129.490164 
L 68.711109 129.276572 
L 68.799509 129.191135 
L 68.90744 128.892106 
L 68.969114 128.806669 
L 69.080128 128.379484 
L 69.173668 128.294047 
L 69.237398 128.165892 
L 69.379249 128.080455 
L 69.483068 127.695989 
L 69.566329 127.610552 
L 69.673231 127.354242 
L 69.731822 127.268805 
L 69.810971 127.012494 
L 69.882924 126.927057 
L 69.991883 126.585309 
L 70.040194 126.542591 
L 70.098785 126.371717 
L 70.22933 126.28628 
L 70.33212 125.859096 
L 70.374265 125.773659 
L 70.484251 125.517348 
L 70.567511 125.431911 
L 70.649744 125.303756 
L 70.697028 125.218319 
L 70.804958 124.91929 
L 70.955033 124.833853 
L 71.063991 124.620261 
L 71.116414 124.534824 
L 71.226401 124.235795 
L 71.320968 124.150358 
L 71.426843 123.979484 
L 71.471043 123.894047 
L 71.547108 123.680455 
L 71.629341 123.595018 
L 71.638592 123.509581 
L 71.803057 123.466863 
L 71.905848 123.167834 
L 71.953132 123.125115 
L 72.019946 122.954242 
L 72.252253 122.868805 
L 72.33243 122.740649 
L 72.42597 122.655212 
L 72.498951 122.44162 
L 72.568849 122.356183 
L 72.670612 122.142591 
L 72.706588 122.057154 
L 72.807324 121.758125 
L 72.8433 121.672688 
L 72.9317 121.501814 
L 73.082803 121.416377 
L 73.174287 121.245504 
L 73.296608 121.160067 
L 73.377813 120.903756 
L 73.42818 120.818319 
L 73.534055 120.647445 
L 73.643013 120.562008 
L 73.701604 120.348416 
L 73.803367 120.262979 
L 73.902046 119.921232 
L 73.996613 119.835795 
L 74.099404 119.622203 
L 74.18986 119.536766 
L 74.264897 119.237737 
L 74.348158 119.1523 
L 74.430391 118.853271 
L 74.571214 118.767834 
L 74.571214 118.725115 
L 74.740819 118.639678 
L 74.847721 118.255212 
L 74.928926 118.169775 
L 75.036857 117.828028 
L 75.080029 117.742591 
L 75.150954 117.528999 
L 75.230103 117.443562 
L 75.340089 117.315407 
L 75.400736 117.22997 
L 75.478857 117.016377 
L 75.570341 116.930941 
L 75.677243 116.631911 
L 75.915718 116.546475 
L 75.917774 116.461038 
L 76.122328 116.375601 
L 76.201477 116.247445 
L 76.284737 116.162008 
L 76.394723 115.948416 
L 76.416309 115.862979 
L 76.527324 115.777542 
L 76.586942 115.692106 
L 76.669175 115.435795 
L 76.821305 115.350358 
L 76.856254 115.222203 
L 76.97138 115.136766 
L 77.047445 115.00861 
L 77.140985 114.923174 
L 77.223217 114.624144 
L 77.400018 114.538708 
L 77.468887 114.282397 
L 77.572706 114.19696 
L 77.606627 114.111523 
L 77.700167 114.068805 
L 77.770065 113.855212 
L 77.825572 113.769775 
L 77.920139 113.513465 
L 78.048628 113.428028 
L 78.132916 113.171717 
L 78.24907 113.08628 
L 78.331303 112.872688 
L 78.390921 112.787251 
L 78.495768 112.573659 
L 78.546135 112.488222 
L 78.653038 112.27463 
L 78.716768 112.189193 
L 78.794889 111.890164 
L 78.851424 111.804727 
L 78.911043 111.591135 
L 79.126903 111.505698 
L 79.237918 111.206669 
L 79.318094 111.121232 
L 79.41369 110.950358 
L 79.508257 110.864921 
L 79.52676 110.779484 
L 79.65422 110.694047 
L 79.691225 110.565892 
L 79.869053 110.480455 
L 79.9739 110.181426 
L 79.997542 110.181426 
L 80.053049 110.010552 
L 80.324417 109.925115 
L 80.42104 109.839678 
L 80.495049 109.754242 
L 80.562891 109.668805 
L 80.658487 109.583368 
L 80.765389 109.497931 
L 80.866124 109.412494 
L 80.942189 109.284339 
L 81.137492 109.198902 
L 81.198139 109.028028 
L 81.32046 108.942591 
L 81.431474 108.771717 
L 81.510623 108.68628 
L 81.613414 108.600843 
L 81.764516 108.515407 
L 81.840581 108.387251 
L 81.985516 108.301814 
L 82.090363 108.088222 
L 82.23941 108.002785 
L 82.350424 107.831911 
L 82.513861 107.746475 
L 82.618708 107.618319 
L 82.809899 107.532882 
L 82.851015 107.447445 
L 82.992866 107.362008 
L 83.074071 107.105698 
L 83.152192 107.020261 
L 83.215923 106.892106 
L 83.281709 106.806669 
L 83.377304 106.721232 
L 83.516072 106.635795 
L 83.611667 106.50764 
L 83.654839 106.422203 
L 83.701095 106.294047 
L 83.841919 106.20861 
L 83.916956 106.037737 
L 84.0475 105.9523 
L 84.149263 105.610552 
L 84.24897 105.525115 
L 84.341482 105.311523 
L 84.414464 105.226086 
L 84.498752 105.012494 
L 84.661162 104.927057 
L 84.757785 104.798902 
L 84.836934 104.713465 
L 84.938697 104.414436 
L 85.045599 104.328999 
L 85.09905 104.200843 
L 85.311828 104.115407 
L 85.39406 104.02997 
L 85.521521 103.944533 
L 85.624312 103.773659 
L 85.68393 103.688222 
L 85.793916 103.517348 
L 85.848396 103.47463 
L 85.943991 103.261038 
L 86.162936 103.175601 
L 86.250308 102.962008 
L 86.354126 102.876572 
L 86.422996 102.748416 
L 86.630634 102.662979 
L 86.736508 102.406669 
L 86.810518 102.321232 
L 86.837243 102.235795 
L 86.956481 102.150358 
L 87.027406 102.022203 
L 87.248407 101.936766 
L 87.324472 101.80861 
L 87.371756 101.723174 
L 87.4581 101.595018 
L 87.66471 101.509581 
L 87.693491 101.424144 
L 87.893933 101.338708 
L 87.972054 101.082397 
L 88.08204 100.99696 
L 88.15091 100.868805 
L 88.204361 100.783368 
L 88.305096 100.527057 
L 88.359576 100.44162 
L 88.409943 100.313465 
L 88.555906 100.228028 
L 88.645334 100.057154 
L 88.885865 99.971717 
L 88.994823 99.800843 
L 89.14387 99.715407 
L 89.24666 99.501814 
L 89.318614 99.416377 
L 89.413181 99.202785 
L 89.657824 99.117348 
L 89.694828 98.989193 
L 89.974419 98.903756 
L 90.07721 98.818319 
L 90.150192 98.732882 
L 90.25915 98.51929 
L 90.450341 98.433853 
L 90.551076 98.220261 
L 90.876923 98.134824 
L 90.945793 97.96395 
L 91.016718 97.878513 
L 91.042416 97.750358 
L 91.24183 97.664921 
L 91.300421 97.40861 
L 91.413491 97.323174 
L 91.413491 97.280455 
L 91.620101 97.195018 
L 91.711584 97.024144 
L 91.825682 96.938708 
L 91.897636 96.853271 
L 92.02818 96.767834 
L 92.12172 96.511523 
L 92.292353 96.426086 
L 92.292353 96.383368 
L 92.47532 96.297931 
L 92.573999 96.127057 
L 92.698376 96.04162 
L 92.748744 95.913465 
L 92.874149 95.828028 
L 92.954325 95.742591 
L 93.176354 95.657154 
L 93.287368 95.528999 
L 93.412773 95.443562 
L 93.510424 95.315407 
L 93.592656 95.22997 
L 93.702643 95.059096 
L 93.892806 95.016377 
L 93.957564 94.845504 
L 94.121001 94.760067 
L 94.214541 94.631911 
L 94.38209 94.546475 
L 94.405732 94.418319 
L 94.640095 94.332882 
L 94.742886 94.076572 
L 94.818951 94.033853 
L 94.821007 93.905698 
L 94.99164 93.820261 
L 95.068733 93.521232 
L 95.229086 93.435795 
L 95.269175 93.30764 
L 95.465505 93.222203 
L 95.547738 93.00861 
L 95.835552 92.923174 
L 95.881808 92.7523 
L 96.135702 92.666863 
L 96.236437 92.495989 
L 96.397818 92.410552 
L 96.503693 92.282397 
L 96.571535 92.19696 
L 96.678437 91.983368 
L 96.867572 91.897931 
L 96.894298 91.769775 
L 97.242759 91.684339 
L 97.343494 91.470746 
L 97.515154 91.385309 
L 97.571689 91.299873 
L 97.861559 91.214436 
L 97.954071 91.08628 
L 98.162737 91.000843 
L 98.21002 90.872688 
L 98.326174 90.787251 
L 98.41149 90.616377 
L 98.679774 90.530941 
L 98.739393 90.402785 
L 99.19784 90.317348 
L 99.261571 90.146475 
L 99.483599 90.061038 
L 99.591529 89.890164 
L 99.673762 89.804727 
L 99.740576 89.71929 
L 100.149683 89.633853 
L 100.213414 89.505698 
L 100.385074 89.420261 
L 100.399465 89.334824 
L 100.558791 89.249387 
L 100.635884 89.121232 
L 100.728396 89.035795 
L 100.819879 88.90764 
L 101.06555 88.822203 
L 101.147782 88.60861 
L 101.180675 88.523174 
L 101.221792 88.395018 
L 101.35542 88.309581 
L 101.35542 88.266863 
L 101.572308 88.181426 
L 101.674071 87.967834 
L 101.931048 87.882397 
L 101.987583 87.79696 
L 102.116072 87.711523 
L 102.192137 87.497931 
L 102.257923 87.412494 
L 102.354546 87.156183 
L 102.423416 87.070746 
L 102.528263 86.857154 
L 102.780101 86.771717 
L 102.882891 86.600843 
L 103.008296 86.515407 
L 103.112115 86.344533 
L 103.270413 86.259096 
L 103.372176 86.088222 
L 103.644571 86.002785 
L 103.746334 85.87463 
L 103.846041 85.789193 
L 103.952944 85.575601 
L 104.241786 85.490164 
L 104.241786 85.447445 
L 104.701261 85.362008 
L 104.782466 85.276572 
L 104.97674 85.191135 
L 105.010661 85.062979 
L 105.27175 84.977542 
L 105.27175 84.934824 
L 105.590402 84.849387 
L 105.688053 84.635795 
L 105.828876 84.550358 
L 105.89569 84.422203 
L 106.297603 84.336766 
L 106.329468 84.20861 
L 106.491877 84.123174 
L 106.52477 84.037737 
L 106.909208 83.9523 
L 106.909208 83.909581 
L 107.353264 83.824144 
L 107.458111 83.610552 
L 107.624632 83.525115 
L 107.710976 83.354242 
L 108.019349 83.268805 
L 108.086163 83.097931 
L 108.322582 83.012494 
L 108.330805 82.927057 
L 108.653568 82.84162 
L 108.653568 82.798902 
L 108.934187 82.713465 
L 109.017448 82.628028 
L 109.093513 82.542591 
L 109.203499 82.414436 
L 109.345351 82.328999 
L 109.367965 82.200843 
L 109.762681 82.115407 
L 109.762681 82.072688 
L 110.130672 81.987251 
L 110.20057 81.901814 
L 110.702189 81.816377 
L 110.74639 81.602785 
L 111.041399 81.517348 
L 111.145218 81.346475 
L 111.330241 81.261038 
L 111.417614 81.090164 
L 111.633474 81.004727 
L 111.691037 80.91929 
L 111.995298 80.833853 
L 112.059028 80.748416 
L 112.248164 80.662979 
L 112.257415 80.534824 
L 112.435243 80.449387 
L 112.51028 80.235795 
L 112.950225 80.150358 
L 112.950225 80.10764 
L 113.399421 80.022203 
L 113.446705 79.936766 
L 113.690319 79.851329 
L 113.690319 79.80861 
L 113.951408 79.723174 
L 114.015138 79.595018 
L 114.602073 79.509581 
L 114.602073 79.466863 
L 114.766539 79.381426 
L 114.824102 79.295989 
L 114.961841 79.210552 
L 115.050241 79.125115 
L 115.200316 79.039678 
L 115.297967 78.826086 
L 115.620731 78.740649 
L 115.679321 78.655212 
L 115.828368 78.569775 
L 115.91574 78.484339 
L 116.061703 78.398902 
L 116.061703 78.356183 
L 116.356713 78.270746 
L 116.356713 78.228028 
L 116.868611 78.142591 
L 116.976542 78.014436 
L 117.018686 77.928999 
L 117.018686 77.88628 
L 117.37023 77.800843 
L 117.393872 77.672688 
L 117.737194 77.587251 
L 117.737194 77.544533 
L 118.143217 77.459096 
L 118.174055 77.373659 
L 118.419725 77.288222 
L 118.510181 77.117348 
L 118.60372 77.031911 
L 118.658199 76.946475 
L 118.852474 76.861038 
L 118.902842 76.732882 
L 119.038525 76.647445 
L 119.038525 76.604727 
L 119.606959 76.51929 
L 119.717973 76.348416 
L 120.08802 76.262979 
L 120.198006 76.134824 
L 120.26996 76.049387 
L 120.26996 76.006669 
L 120.482737 75.921232 
L 120.49096 75.835795 
L 120.650286 75.750358 
L 120.753076 75.536766 
L 120.875398 75.451329 
L 120.875398 75.40861 
L 121.077895 75.323174 
L 121.108733 75.1523 
L 121.389352 75.066863 
L 121.431496 74.981426 
L 121.59185 74.895989 
L 121.604185 74.810552 
L 122.031794 74.725115 
L 122.119167 74.554242 
L 122.524162 74.468805 
L 122.524162 74.426086 
L 122.834591 74.340649 
L 122.936354 74.212494 
L 123.343405 74.127057 
L 123.393773 73.998902 
L 123.89642 73.913465 
L 123.93548 73.828028 
L 124.072192 73.742591 
L 124.125643 73.528999 
L 124.479244 73.443562 
L 124.562504 73.272688 
L 125.12991 73.187251 
L 125.173082 73.101814 
L 125.425947 73.016377 
L 125.425947 72.973659 
L 125.678813 72.888222 
L 125.678813 72.845504 
L 126.310976 72.760067 
L 126.418907 72.67463 
L 126.83521 72.589193 
L 126.83521 72.546475 
L 127.284406 72.461038 
L 127.373834 72.290164 
L 127.558857 72.204727 
L 127.669871 72.076572 
L 127.827141 71.991135 
L 127.839476 71.905698 
L 128.187937 71.820261 
L 128.297923 71.649387 
L 128.432579 71.56395 
L 128.432579 71.521232 
L 128.680305 71.435795 
L 128.680305 71.393076 
L 129.025682 71.30764 
L 129.124361 71.136766 
L 129.236403 71.051329 
L 129.262101 70.923174 
L 129.677376 70.837737 
L 129.683543 70.7523 
L 129.894265 70.666863 
L 129.936409 70.581426 
L 130.479144 70.495989 
L 130.564461 70.410552 
L 131.078415 70.325115 
L 131.078415 70.282397 
L 131.693104 70.19696 
L 131.693104 70.154242 
L 131.946997 70.068805 
L 132.046705 69.940649 
L 132.239951 69.855212 
L 132.3191 69.769775 
L 132.86492 69.684339 
L 132.947152 69.598902 
L 133.255525 69.513465 
L 133.364483 69.257154 
L 133.896939 69.171717 
L 133.896939 69.128999 
L 134.318382 69.043562 
L 134.389307 68.872688 
L 134.718238 68.787251 
L 134.784024 68.701814 
L 134.871396 68.616377 
L 134.883731 68.488222 
L 135.499448 68.402785 
L 135.544676 68.317348 
L 135.849965 68.231911 
L 135.929114 68.146475 
L 136.01443 68.061038 
L 136.01443 68.018319 
L 136.411203 67.932882 
L 136.418398 67.847445 
L 136.675375 67.762008 
L 136.767887 67.633853 
L 137.217083 67.548416 
L 137.291092 67.420261 
L 137.540874 67.377542 
L 137.593298 67.249387 
L 137.969512 67.16395 
L 138.044549 67.078513 
L 138.697271 66.993076 
L 138.708578 66.90764 
L 138.890518 66.822203 
L 138.890518 66.779484 
L 139.472314 66.694047 
L 139.545295 66.60861 
L 139.823858 66.523174 
L 139.823858 66.480455 
L 139.981128 66.395018 
L 139.981128 66.3523 
L 140.143538 66.266863 
L 140.143538 66.224144 
L 140.417989 66.138708 
L 140.513585 66.053271 
L 140.801399 65.967834 
L 140.801399 65.925115 
L 141.284516 65.839678 
L 141.350302 65.711523 
L 141.553828 65.626086 
L 141.553828 65.583368 
L 141.942377 65.497931 
L 141.942377 65.455212 
L 142.637243 65.369775 
L 142.637243 65.327057 
L 143.047379 65.24162 
L 143.062797 65.113465 
L 143.394812 65.028028 
L 143.453403 64.857154 
L 143.707296 64.771717 
L 143.803919 64.68628 
L 143.879984 64.600843 
L 143.935492 64.515407 
L 144.243864 64.42997 
L 144.243864 64.387251 
L 144.554292 64.301814 
L 144.589241 64.216377 
L 144.836967 64.130941 
L 144.868832 64.002785 
L 145.208042 63.917348 
L 145.208042 63.87463 
L 145.483521 63.789193 
L 145.571921 63.575601 
L 145.879266 63.490164 
L 145.879266 63.447445 
L 146.154745 63.362008 
L 146.163997 63.276572 
L 146.662532 63.191135 
L 146.748876 63.062979 
L 147.057249 62.977542 
L 147.096309 62.892106 
L 147.508501 62.806669 
L 147.55784 62.721232 
L 147.92172 62.635795 
L 148.022455 62.50764 
L 148.230092 62.422203 
L 148.230092 62.379484 
L 148.485013 62.294047 
L 148.553883 62.123174 
L 149.412187 62.037737 
L 149.518061 61.9523 
L 150.267406 61.866863 
L 150.311606 61.781426 
L 150.614839 61.695989 
L 150.707351 61.567834 
L 151.359045 61.482397 
L 151.457724 61.311523 
L 152.011767 61.226086 
L 152.011767 61.183368 
L 152.616177 61.097931 
L 152.726163 60.927057 
L 153.252452 60.84162 
L 153.252452 60.798902 
L 153.601941 60.713465 
L 153.601941 60.670746 
L 154.219714 60.585309 
L 154.219714 60.542591 
L 154.662742 60.457154 
L 154.686384 60.371717 
L 155.221924 60.28628 
L 155.263041 60.200843 
L 156.090507 60.115407 
L 156.131623 59.944533 
L 156.356735 59.859096 
L 156.356735 59.816377 
L 156.970396 59.730941 
L 157.080382 59.645504 
L 157.59742 59.560067 
L 157.677597 59.431911 
L 158.13296 59.346475 
L 158.13296 59.303756 
L 158.450584 59.218319 
L 158.488617 59.132882 
L 159.109473 59.047445 
L 159.210208 58.91929 
L 159.892739 58.833853 
L 159.892739 58.791135 
L 160.441642 58.705698 
L 160.441642 58.662979 
L 160.809634 58.577542 
L 160.809634 58.534824 
L 161.359564 58.449387 
L 161.359564 58.406669 
L 162.494375 58.321232 
L 162.549882 58.235795 
L 163.078227 58.150358 
L 163.145041 58.064921 
L 163.755619 57.979484 
L 163.85327 57.851329 
L 164.421703 57.765892 
L 164.421703 57.723174 
L 164.881178 57.637737 
L 164.881178 57.595018 
L 165.237862 57.509581 
L 165.311872 57.424144 
L 165.796017 57.338708 
L 165.824798 57.210552 
L 166.628622 57.125115 
L 166.628622 57.082397 
L 167.675033 56.99696 
L 167.707926 56.911523 
L 168.593983 56.826086 
L 168.593983 56.783368 
L 169.066821 56.697931 
L 169.066821 56.655212 
L 170.220134 56.569775 
L 170.220134 56.527057 
L 171.122637 56.44162 
L 171.159642 56.356183 
L 172.863914 56.270746 
L 172.963621 56.142591 
L 173.608119 56.057154 
L 173.608119 56.014436 
L 174.763488 55.928999 
L 174.763488 55.88628 
L 175.82429 55.800843 
L 175.82429 55.758125 
L 176.742212 55.672688 
L 176.795663 55.587251 
L 177.305505 55.501814 
L 177.305505 55.459096 
L 178.05485 55.373659 
L 178.071297 55.288222 
L 178.532828 55.202785 
L 178.582167 55.117348 
L 178.790833 55.031911 
L 178.854563 54.946475 
L 179.522703 54.861038 
L 179.551485 54.775601 
L 180.567058 54.690164 
L 180.646207 54.562008 
L 180.957663 54.476572 
L 180.957663 54.433853 
L 181.62786 54.348416 
L 181.62786 54.305698 
L 181.999962 54.220261 
L 182.096586 54.092106 
L 182.329921 54.006669 
L 182.341228 53.921232 
L 183.110103 53.835795 
L 183.110103 53.793076 
L 183.955044 53.70764 
L 184.06503 53.536766 
L 185.177227 53.451329 
L 185.27899 53.365892 
L 186.178409 53.280455 
L 186.178409 53.237737 
L 187.012043 53.1523 
L 187.012043 53.109581 
L 187.613369 53.024144 
L 187.613369 52.981426 
L 188.087235 52.895989 
L 188.087235 52.853271 
L 188.355519 52.767834 
L 188.355519 52.725115 
L 189.75553 52.639678 
L 189.75553 52.59696 
L 191.009578 52.511523 
L 191.087699 52.426086 
L 191.946003 52.340649 
L 191.946003 52.297931 
L 192.676845 52.212494 
L 192.676845 52.169775 
L 193.946312 52.084339 
L 193.946312 52.04162 
L 194.830313 51.956183 
L 194.881709 51.870746 
L 195.643389 51.785309 
L 195.643389 51.742591 
L 196.876879 51.657154 
L 196.892297 51.571717 
L 197.316823 51.48628 
L 197.316823 51.443562 
L 197.79994 51.358125 
L 197.79994 51.315407 
L 198.685997 51.22997 
L 198.782621 51.144533 
L 199.547384 51.059096 
L 199.548412 50.973659 
L 200.004803 50.888222 
L 200.013027 50.760067 
L 200.411855 50.67463 
L 200.411855 50.631911 
L 201.222875 50.546475 
L 201.281466 50.461038 
L 201.575447 50.375601 
L 201.575447 50.332882 
L 203.415403 50.247445 
L 203.415403 50.204727 
L 204.369302 50.11929 
L 204.369302 50.076572 
L 205.301615 49.991135 
L 205.301615 49.948416 
L 205.722029 49.862979 
L 205.818653 49.734824 
L 207.006915 49.649387 
L 207.069617 49.56395 
L 207.560957 49.478513 
L 207.560957 49.435795 
L 210.160537 49.350358 
L 210.160537 49.30764 
L 210.514138 49.222203 
L 210.514138 49.179484 
L 211.668479 49.094047 
L 211.668479 49.051329 
L 213.956602 48.965892 
L 213.956602 48.923174 
L 214.249556 48.837737 
L 214.261891 48.7523 
L 214.610352 48.666863 
L 214.642217 48.581426 
L 215.580697 48.495989 
L 215.580697 48.453271 
L 216.944732 48.367834 
L 216.944732 48.325115 
L 217.886296 48.239678 
L 217.986003 48.154242 
L 219.193795 48.068805 
L 219.258553 47.940649 
L 220.667815 47.855212 
L 220.667815 47.812494 
L 221.651524 47.727057 
L 221.651524 47.684339 
L 222.375171 47.598902 
L 222.383394 47.513465 
L 223.236558 47.428028 
L 223.262256 47.342591 
L 224.087666 47.257154 
L 224.087666 47.214436 
L 225.307793 47.128999 
L 225.307793 47.08628 
L 226.789009 47.000843 
L 226.789009 46.958125 
L 227.799443 46.872688 
L 227.799443 46.82997 
L 228.801653 46.744533 
L 228.801653 46.701814 
L 229.659957 46.616377 
L 229.659957 46.573659 
L 230.418553 46.488222 
L 230.418553 46.445504 
L 231.538973 46.360067 
L 231.602703 46.27463 
L 232.229727 46.189193 
L 232.295514 46.103756 
L 234.037818 46.018319 
L 234.037818 45.975601 
L 234.95574 45.890164 
L 235.059559 45.804727 
L 238.050772 45.71929 
L 238.050772 45.676572 
L 239.439476 45.591135 
L 239.483676 45.505698 
L 241.750214 45.420261 
L 241.750214 45.377542 
L 244.328208 45.292106 
L 244.328208 45.249387 
L 246.540266 45.16395 
L 246.540266 45.121232 
L 246.773601 45.035795 
L 246.773601 44.993076 
L 251.086705 44.90764 
L 251.086705 44.864921 
L 253.340907 44.779484 
L 253.340907 44.736766 
L 254.09642 44.651329 
L 254.09642 44.565892 
L 254.60729 44.480455 
L 254.60729 44.437737 
L 257.21201 44.3523 
L 257.21201 44.309581 
L 258.959454 44.224144 
L 258.959454 44.181426 
L 261.230103 44.095989 
L 261.317475 44.010552 
L 261.955807 43.925115 
L 261.955807 43.882397 
L 263.056696 43.79696 
L 263.056696 43.754242 
L 263.863604 43.668805 
L 263.863604 43.626086 
L 266.706798 43.540649 
L 266.706798 43.497931 
L 267.544544 43.412494 
L 267.544544 43.369775 
L 269.484207 43.284339 
L 269.484207 43.24162 
L 271.342665 43.156183 
L 271.342665 43.113465 
L 272.442527 43.028028 
L 272.442527 42.985309 
L 273.045909 42.899873 
L 273.045909 42.857154 
L 275.735945 42.771717 
L 275.735945 42.728999 
L 277.338454 42.643562 
L 277.38471 42.558125 
L 277.752701 42.472688 
L 277.752701 42.42997 
L 279.381935 42.344533 
L 279.381935 42.301814 
L 281.218807 42.216377 
L 281.218807 42.173659 
L 282.600316 42.088222 
L 282.600316 42.045504 
L 284.272723 41.960067 
L 284.272723 41.917348 
L 288.631054 41.831911 
L 288.631054 41.789193 
L 290.113298 41.703756 
L 290.113298 41.661038 
L 294.147837 41.575601 
L 294.147837 41.532882 
L 295.546821 41.447445 
L 295.546821 41.404727 
L 298.189573 41.31929 
L 298.189573 41.276572 
L 299.549495 41.191135 
L 299.549495 41.148416 
L 301.544665 41.062979 
L 301.544665 41.020261 
L 303.302388 40.934824 
L 303.302388 40.892106 
L 306.861007 40.806669 
L 306.861007 40.76395 
L 310.573811 40.678513 
L 310.573811 40.635795 
L 313.870313 40.550358 
L 313.870313 40.50764 
L 315.483101 40.422203 
L 315.483101 40.379484 
L 315.937437 40.294047 
L 315.937437 40.251329 
L 318.344798 40.165892 
L 318.344798 40.123174 
L 325.146467 40.037737 
L 325.146467 39.995018 
L 326.902134 39.909581 
L 326.902134 39.866863 
L 330.446362 39.781426 
L 330.446362 39.738708 
L 332.590579 39.653271 
L 332.590579 39.610552 
L 341.743074 39.525115 
L 341.743074 39.482397 
L 347.510667 39.39696 
L 347.510667 39.354242 
L 350.917155 39.268805 
L 350.917155 39.226086 
L 353.064455 39.140649 
L 353.064455 39.097931 
L 361.751308 39.012494 
L 361.751308 38.969775 
L 366.065439 38.884339 
L 366.065439 38.84162 
L 373.453016 38.756183 
L 373.518802 38.670746 
L 376.414419 38.585309 
L 376.490485 38.499873 
L 406.818918 38.414436 
L 406.818918 38.371717 
L 417.391982 38.28628 
L 417.391982 38.243562 
L 490.18125 38.158125 
L 490.18125 38.158125 
" clip-path="url(#pf1282744ec)" style="fill: none; stroke: #ff0000; stroke-width: 2; stroke-linecap: square"/>
   </g>
   <g id="line2d_27">
    <path d="M 43.78125 354.958125 
L 490.18125 38.158125 
" clip-path="url(#pf1282744ec)" style="fill: none; stroke-dasharray: 7.4,3.2; stroke-dashoffset: 0; stroke: #000080; stroke-width: 2"/>
   </g>
   <g id="patch_3">
    <path d="M 43.78125 354.958125 
L 43.78125 22.318125 
" style="fill: none; stroke: #000000; stroke-width: 0.8; stroke-linejoin: miter; stroke-linecap: square"/>
   </g>
   <g id="patch_4">
    <path d="M 490.18125 354.958125 
L 490.18125 22.318125 
" style="fill: none; stroke: #000000; stroke-width: 0.8; stroke-linejoin: miter; stroke-linecap: square"/>
   </g>
   <g id="patch_5">
    <path d="M 43.78125 354.958125 
L 490.18125 354.958125 
" style="fill: none; stroke: #000000; stroke-width: 0.8; stroke-linejoin: miter; stroke-linecap: square"/>
   </g>
   <g id="patch_6">
    <path d="M 43.78125 22.318125 
L 490.18125 22.318125 
" style="fill: none; stroke: #000000; stroke-width: 0.8; stroke-linejoin: miter; stroke-linecap: square"/>
   </g>
   <g id="text_15">
    <!-- ROC Curves: LSTM Model vs ADOPT -->
    <g transform="translate(160.099687 16.318125) scale(0.12 -0.12)">
     <defs>
      <path id="DejaVuSans-4f" d="M 2522 4238 
Q 1834 4238 1429 3725 
Q 1025 3213 1025 2328 
Q 1025 1447 1429 934 
Q 1834 422 2522 422 
Q 3209 422 3611 934 
Q 4013 1447 4013 2328 
Q 4013 3213 3611 3725 
Q 3209 4238 2522 4238 
z
M 2522 4750 
Q 3503 4750 4090 4092 
Q 4678 3434 4678 2328 
Q 4678 1225 4090 567 
Q 3503 -91 2522 -91 
Q 1538 -91 948 565 
Q 359 1222 359 2328 
Q 359 3434 948 4092 
Q 1538 4750 2522 4750 
z
" transform="scale(0.015625)"/>
      <path id="DejaVuSans-43" d="M 4122 4306 
L 4122 3641 
Q 3803 3938 3442 4084 
Q 3081 4231 2675 4231 
Q 1875 4231 1450 3742 
Q 1025 3253 1025 2328 
Q 1025 1406 1450 917 
Q 1875 428 2675 428 
Q 3081 428 3442 575 
Q 3803 722 4122 1019 
L 4122 359 
Q 3791 134 3420 21 
Q 3050 -91 2638 -91 
Q 1578 -91 968 557 
Q 359 1206 359 2328 
Q 359 3453 968 4101 
Q 1578 4750 2638 4750 
Q 3056 4750 3426 4639 
Q 3797 4528 4122 4306 
z
" transform="scale(0.015625)"/>
      <path id="DejaVuSans-3a" d="M 750 794 
L 1409 794 
L 1409 0 
L 750 0 
L 750 794 
z
M 750 3309 
L 1409 3309 
L 1409 2516 
L 750 2516 
L 750 3309 
z
" transform="scale(0.015625)"/>
      <path id="DejaVuSans-4c" d="M 628 4666 
L 1259 4666 
L 1259 531 
L 3531 531 
L 3531 0 
L 628 0 
L 628 4666 
z
" transform="scale(0.015625)"/>
      <path id="DejaVuSans-53" d="M 3425 4513 
L 3425 3897 
Q 3066 4069 2747 4153 
Q 2428 4238 2131 4238 
Q 1616 4238 1336 4038 
Q 1056 3838 1056 3469 
Q 1056 3159 1242 3001 
Q 1428 2844 1947 2747 
L 2328 2669 
Q 3034 2534 3370 2195 
Q 3706 1856 3706 1288 
Q 3706 609 3251 259 
Q 2797 -91 1919 -91 
Q 1588 -91 1214 -16 
Q 841 59 441 206 
L 441 856 
Q 825 641 1194 531 
Q 1563 422 1919 422 
Q 2459 422 2753 634 
Q 3047 847 3047 1241 
Q 3047 1584 2836 1778 
Q 2625 1972 2144 2069 
L 1759 2144 
Q 1053 2284 737 2584 
Q 422 2884 422 3419 
Q 422 4038 858 4394 
Q 1294 4750 2059 4750 
Q 2388 4750 2728 4690 
Q 3069 4631 3425 4513 
z
" transform="scale(0.015625)"/>
      <path id="DejaVuSans-4d" d="M 628 4666 
L 1569 4666 
L 2759 1491 
L 3956 4666 
L 4897 4666 
L 4897 0 
L 4281 0 
L 4281 4097 
L 3078 897 
L 2444 897 
L 1241 4097 
L 1241 0 
L 628 0 
L 628 4666 
z
" transform="scale(0.015625)"/>
      <path id="DejaVuSans-64" d="M 2906 2969 
L 2906 4863 
L 3481 4863 
L 3481 0 
L 2906 0 
L 2906 525 
Q 2725 213 2448 61 
Q 2172 -91 1784 -91 
Q 1150 -91 751 415 
Q 353 922 353 1747 
Q 353 2572 751 3078 
Q 1150 3584 1784 3584 
Q 2172 3584 2448 3432 
Q 2725 3281 2906 2969 
z
M 947 1747 
Q 947 1113 1208 752 
Q 1469 391 1925 391 
Q 2381 391 2643 752 
Q 2906 1113 2906 1747 
Q 2906 2381 2643 2742 
Q 2381 3103 1925 3103 
Q 1469 3103 1208 2742 
Q 947 2381 947 1747 
z
" transform="scale(0.015625)"/>
      <path id="DejaVuSans-41" d="M 2188 4044 
L 1331 1722 
L 3047 1722 
L 2188 4044 
z
M 1831 4666 
L 2547 4666 
L 4325 0 
L 3669 0 
L 3244 1197 
L 1141 1197 
L 716 0 
L 50 0 
L 1831 4666 
z
" transform="scale(0.015625)"/>
      <path id="DejaVuSans-44" d="M 1259 4147 
L 1259 519 
L 2022 519 
Q 2988 519 3436 956 
Q 3884 1394 3884 2338 
Q 3884 3275 3436 3711 
Q 2988 4147 2022 4147 
L 1259 4147 
z
M 628 4666 
L 1925 4666 
Q 3281 4666 3915 4102 
Q 4550 3538 4550 2338 
Q 4550 1131 3912 565 
Q 3275 0 1925 0 
L 628 0 
L 628 4666 
z
" transform="scale(0.015625)"/>
     </defs>
     <use xlink:href="#DejaVuSans-52"/>
     <use xlink:href="#DejaVuSans-4f" transform="translate(69.482422 0)"/>
     <use xlink:href="#DejaVuSans-43" transform="translate(148.193359 0)"/>
     <use xlink:href="#DejaVuSans-20" transform="translate(218.017578 0)"/>
     <use xlink:href="#DejaVuSans-43" transform="translate(249.804688 0)"/>
     <use xlink:href="#DejaVuSans-75" transform="translate(319.628906 0)"/>
     <use xlink:href="#DejaVuSans-72" transform="translate(383.007812 0)"/>
     <use xlink:href="#DejaVuSans-76" transform="translate(424.121094 0)"/>
     <use xlink:href="#DejaVuSans-65" transform="translate(483.300781 0)"/>
     <use xlink:href="#DejaVuSans-73" transform="translate(544.824219 0)"/>
     <use xlink:href="#DejaVuSans-3a" transform="translate(596.923828 0)"/>
     <use xlink:href="#DejaVuSans-20" transform="translate(630.615234 0)"/>
     <use xlink:href="#DejaVuSans-4c" transform="translate(662.402344 0)"/>
     <use xlink:href="#DejaVuSans-53" transform="translate(718.115234 0)"/>
     <use xlink:href="#DejaVuSans-54" transform="translate(781.591797 0)"/>
     <use xlink:href="#DejaVuSans-4d" transform="translate(842.675781 0)"/>
     <use xlink:href="#DejaVuSans-20" transform="translate(928.955078 0)"/>
     <use xlink:href="#DejaVuSans-4d" transform="translate(960.742188 0)"/>
     <use xlink:href="#DejaVuSans-6f" transform="translate(1047.021484 0)"/>
     <use xlink:href="#DejaVuSans-64" transform="translate(1108.203125 0)"/>
     <use xlink:href="#DejaVuSans-65" transform="translate(1171.679688 0)"/>
     <use xlink:href="#DejaVuSans-6c" transform="translate(1233.203125 0)"/>
     <use xlink:href="#DejaVuSans-20" transform="translate(1260.986328 0)"/>
     <use xlink:href="#DejaVuSans-76" transform="translate(1292.773438 0)"/>
     <use xlink:href="#DejaVuSans-73" transform="translate(1351.953125 0)"/>
     <use xlink:href="#DejaVuSans-20" transform="translate(1404.052734 0)"/>
     <use xlink:href="#DejaVuSans-41" transform="translate(1435.839844 0)"/>
     <use xlink:href="#DejaVuSans-44" transform="translate(1504.248047 0)"/>
     <use xlink:href="#DejaVuSans-4f" transform="translate(1581.25 0)"/>
     <use xlink:href="#DejaVuSans-50" transform="translate(1659.960938 0)"/>
     <use xlink:href="#DejaVuSans-54" transform="translate(1720.263672 0)"/>
    </g>
   </g>
   <g id="legend_1">
    <g id="patch_7">
     <path d="M 210.764062 349.958125 
L 483.18125 349.958125 
Q 485.18125 349.958125 485.18125 347.958125 
L 485.18125 304.92375 
Q 485.18125 302.92375 483.18125 302.92375 
L 210.764062 302.92375 
Q 208.764062 302.92375 208.764062 304.92375 
L 208.764062 347.958125 
Q 208.764062 349.958125 210.764062 349.958125 
z
" style="fill: #ffffff; opacity: 0.8; stroke: #cccccc; stroke-linejoin: miter"/>
    </g>
    <g id="line2d_28">
     <path d="M 212.764062 311.022187 
L 222.764062 311.022187 
L 232.764062 311.022187 
" style="fill: none; stroke: #ff8c00; stroke-width: 2; stroke-linecap: square"/>
    </g>
    <g id="text_16">
     <!-- LSTM Model ROC (AUC = 0.975) -->
     <g transform="translate(240.764062 314.522187) scale(0.1 -0.1)">
      <defs>
       <path id="DejaVuSans-28" d="M 1984 4856 
Q 1566 4138 1362 3434 
Q 1159 2731 1159 2009 
Q 1159 1288 1364 580 
Q 1569 -128 1984 -844 
L 1484 -844 
Q 1016 -109 783 600 
Q 550 1309 550 2009 
Q 550 2706 781 3412 
Q 1013 4119 1484 4856 
L 1984 4856 
z
" transform="scale(0.015625)"/>
       <path id="DejaVuSans-55" d="M 556 4666 
L 1191 4666 
L 1191 1831 
Q 1191 1081 1462 751 
Q 1734 422 2344 422 
Q 2950 422 3222 751 
Q 3494 1081 3494 1831 
L 3494 4666 
L 4128 4666 
L 4128 1753 
Q 4128 841 3676 375 
Q 3225 -91 2344 -91 
Q 1459 -91 1007 375 
Q 556 841 556 1753 
L 556 4666 
z
" transform="scale(0.015625)"/>
       <path id="DejaVuSans-3d" d="M 678 2906 
L 4684 2906 
L 4684 2381 
L 678 2381 
L 678 2906 
z
M 678 1631 
L 4684 1631 
L 4684 1100 
L 678 1100 
L 678 1631 
z
" transform="scale(0.015625)"/>
       <path id="DejaVuSans-39" d="M 703 97 
L 703 672 
Q 941 559 1184 500 
Q 1428 441 1663 441 
Q 2288 441 2617 861 
Q 2947 1281 2994 2138 
Q 2813 1869 2534 1725 
Q 2256 1581 1919 1581 
Q 1219 1581 811 2004 
Q 403 2428 403 3163 
Q 403 3881 828 4315 
Q 1253 4750 1959 4750 
Q 2769 4750 3195 4129 
Q 3622 3509 3622 2328 
Q 3622 1225 3098 567 
Q 2575 -91 1691 -91 
Q 1453 -91 1209 -44 
Q 966 3 703 97 
z
M 1959 2075 
Q 2384 2075 2632 2365 
Q 2881 2656 2881 3163 
Q 2881 3666 2632 3958 
Q 2384 4250 1959 4250 
Q 1534 4250 1286 3958 
Q 1038 3666 1038 3163 
Q 1038 2656 1286 2365 
Q 1534 2075 1959 2075 
z
" transform="scale(0.015625)"/>
       <path id="DejaVuSans-37" d="M 525 4666 
L 3525 4666 
L 3525 4397 
L 1831 0 
L 1172 0 
L 2766 4134 
L 525 4134 
L 525 4666 
z
" transform="scale(0.015625)"/>
       <path id="DejaVuSans-35" d="M 691 4666 
L 3169 4666 
L 3169 4134 
L 1269 4134 
L 1269 2991 
Q 1406 3038 1543 3061 
Q 1681 3084 1819 3084 
Q 2600 3084 3056 2656 
Q 3513 2228 3513 1497 
Q 3513 744 3044 326 
Q 2575 -91 1722 -91 
Q 1428 -91 1123 -41 
Q 819 9 494 109 
L 494 744 
Q 775 591 1075 516 
Q 1375 441 1709 441 
Q 2250 441 2565 725 
Q 2881 1009 2881 1497 
Q 2881 1984 2565 2268 
Q 2250 2553 1709 2553 
Q 1456 2553 1204 2497 
Q 953 2441 691 2322 
L 691 4666 
z
" transform="scale(0.015625)"/>
       <path id="DejaVuSans-29" d="M 513 4856 
L 1013 4856 
Q 1481 4119 1714 3412 
Q 1947 2706 1947 2009 
Q 1947 1309 1714 600 
Q 1481 -109 1013 -844 
L 513 -844 
Q 928 -128 1133 580 
Q 1338 1288 1338 2009 
Q 1338 2731 1133 3434 
Q 928 4138 513 4856 
z
" transform="scale(0.015625)"/>
      </defs>
      <use xlink:href="#DejaVuSans-4c"/>
      <use xlink:href="#DejaVuSans-53" transform="translate(55.712891 0)"/>
      <use xlink:href="#DejaVuSans-54" transform="translate(119.189453 0)"/>
      <use xlink:href="#DejaVuSans-4d" transform="translate(180.273438 0)"/>
      <use xlink:href="#DejaVuSans-20" transform="translate(266.552734 0)"/>
      <use xlink:href="#DejaVuSans-4d" transform="translate(298.339844 0)"/>
      <use xlink:href="#DejaVuSans-6f" transform="translate(384.619141 0)"/>
      <use xlink:href="#DejaVuSans-64" transform="translate(445.800781 0)"/>
      <use xlink:href="#DejaVuSans-65" transform="translate(509.277344 0)"/>
      <use xlink:href="#DejaVuSans-6c" transform="translate(570.800781 0)"/>
      <use xlink:href="#DejaVuSans-20" transform="translate(598.583984 0)"/>
      <use xlink:href="#DejaVuSans-52" transform="translate(630.371094 0)"/>
      <use xlink:href="#DejaVuSans-4f" transform="translate(699.853516 0)"/>
      <use xlink:href="#DejaVuSans-43" transform="translate(778.564453 0)"/>
      <use xlink:href="#DejaVuSans-20" transform="translate(848.388672 0)"/>
      <use xlink:href="#DejaVuSans-28" transform="translate(880.175781 0)"/>
      <use xlink:href="#DejaVuSans-41" transform="translate(919.189453 0)"/>
      <use xlink:href="#DejaVuSans-55" transform="translate(987.597656 0)"/>
      <use xlink:href="#DejaVuSans-43" transform="translate(1060.791016 0)"/>
      <use xlink:href="#DejaVuSans-20" transform="translate(1130.615234 0)"/>
      <use xlink:href="#DejaVuSans-3d" transform="translate(1162.402344 0)"/>
      <use xlink:href="#DejaVuSans-20" transform="translate(1246.191406 0)"/>
      <use xlink:href="#DejaVuSans-30" transform="translate(1277.978516 0)"/>
      <use xlink:href="#DejaVuSans-2e" transform="translate(1341.601562 0)"/>
      <use xlink:href="#DejaVuSans-39" transform="translate(1373.388672 0)"/>
      <use xlink:href="#DejaVuSans-37" transform="translate(1437.011719 0)"/>
      <use xlink:href="#DejaVuSans-35" transform="translate(1500.634766 0)"/>
      <use xlink:href="#DejaVuSans-29" transform="translate(1564.257812 0)"/>
     </g>
    </g>
    <g id="line2d_29">
     <path d="M 212.764062 325.700312 
L 222.764062 325.700312 
L 232.764062 325.700312 
" style="fill: none; stroke: #ff0000; stroke-width: 2; stroke-linecap: square"/>
    </g>
    <g id="text_17">
     <!-- ADOPT ROC (AUC = 0.936 , approx. from 0.895) -->
     <g transform="translate(240.764062 329.200312) scale(0.1 -0.1)">
      <defs>
       <path id="DejaVuSans-33" d="M 2597 2516 
Q 3050 2419 3304 2112 
Q 3559 1806 3559 1356 
Q 3559 666 3084 287 
Q 2609 -91 1734 -91 
Q 1441 -91 1130 -33 
Q 819 25 488 141 
L 488 750 
Q 750 597 1062 519 
Q 1375 441 1716 441 
Q 2309 441 2620 675 
Q 2931 909 2931 1356 
Q 2931 1769 2642 2001 
Q 2353 2234 1838 2234 
L 1294 2234 
L 1294 2753 
L 1863 2753 
Q 2328 2753 2575 2939 
Q 2822 3125 2822 3475 
Q 2822 3834 2567 4026 
Q 2313 4219 1838 4219 
Q 1578 4219 1281 4162 
Q 984 4106 628 3988 
L 628 4550 
Q 988 4650 1302 4700 
Q 1616 4750 1894 4750 
Q 2613 4750 3031 4423 
Q 3450 4097 3450 3541 
Q 3450 3153 3228 2886 
Q 3006 2619 2597 2516 
z
" transform="scale(0.015625)"/>
       <path id="DejaVuSans-2c" d="M 750 794 
L 1409 794 
L 1409 256 
L 897 -744 
L 494 -744 
L 750 256 
L 750 794 
z
" transform="scale(0.015625)"/>
       <path id="DejaVuSans-70" d="M 1159 525 
L 1159 -1331 
L 581 -1331 
L 581 3500 
L 1159 3500 
L 1159 2969 
Q 1341 3281 1617 3432 
Q 1894 3584 2278 3584 
Q 2916 3584 3314 3078 
Q 3713 2572 3713 1747 
Q 3713 922 3314 415 
Q 2916 -91 2278 -91 
Q 1894 -91 1617 61 
Q 1341 213 1159 525 
z
M 3116 1747 
Q 3116 2381 2855 2742 
Q 2594 3103 2138 3103 
Q 1681 3103 1420 2742 
Q 1159 2381 1159 1747 
Q 1159 1113 1420 752 
Q 1681 391 2138 391 
Q 2594 391 2855 752 
Q 3116 1113 3116 1747 
z
" transform="scale(0.015625)"/>
       <path id="DejaVuSans-78" d="M 3513 3500 
L 2247 1797 
L 3578 0 
L 2900 0 
L 1881 1375 
L 863 0 
L 184 0 
L 1544 1831 
L 300 3500 
L 978 3500 
L 1906 2253 
L 2834 3500 
L 3513 3500 
z
" transform="scale(0.015625)"/>
       <path id="DejaVuSans-66" d="M 2375 4863 
L 2375 4384 
L 1825 4384 
Q 1516 4384 1395 4259 
Q 1275 4134 1275 3809 
L 1275 3500 
L 2222 3500 
L 2222 3053 
L 1275 3053 
L 1275 0 
L 697 0 
L 697 3053 
L 147 3053 
L 147 3500 
L 697 3500 
L 697 3744 
Q 697 4328 969 4595 
Q 1241 4863 1831 4863 
L 2375 4863 
z
" transform="scale(0.015625)"/>
       <path id="DejaVuSans-6d" d="M 3328 2828 
Q 3544 3216 3844 3400 
Q 4144 3584 4550 3584 
Q 5097 3584 5394 3201 
Q 5691 2819 5691 2113 
L 5691 0 
L 5113 0 
L 5113 2094 
Q 5113 2597 4934 2840 
Q 4756 3084 4391 3084 
Q 3944 3084 3684 2787 
Q 3425 2491 3425 1978 
L 3425 0 
L 2847 0 
L 2847 2094 
Q 2847 2600 2669 2842 
Q 2491 3084 2119 3084 
Q 1678 3084 1418 2786 
Q 1159 2488 1159 1978 
L 1159 0 
L 581 0 
L 581 3500 
L 1159 3500 
L 1159 2956 
Q 1356 3278 1631 3431 
Q 1906 3584 2284 3584 
Q 2666 3584 2933 3390 
Q 3200 3197 3328 2828 
z
" transform="scale(0.015625)"/>
      </defs>
      <use xlink:href="#DejaVuSans-41"/>
      <use xlink:href="#DejaVuSans-44" transform="translate(68.408203 0)"/>
      <use xlink:href="#DejaVuSans-4f" transform="translate(145.410156 0)"/>
      <use xlink:href="#DejaVuSans-50" transform="translate(224.121094 0)"/>
      <use xlink:href="#DejaVuSans-54" transform="translate(284.423828 0)"/>
      <use xlink:href="#DejaVuSans-20" transform="translate(345.507812 0)"/>
      <use xlink:href="#DejaVuSans-52" transform="translate(377.294922 0)"/>
      <use xlink:href="#DejaVuSans-4f" transform="translate(446.777344 0)"/>
      <use xlink:href="#DejaVuSans-43" transform="translate(525.488281 0)"/>
      <use xlink:href="#DejaVuSans-20" transform="translate(595.3125 0)"/>
      <use xlink:href="#DejaVuSans-28" transform="translate(627.099609 0)"/>
      <use xlink:href="#DejaVuSans-41" transform="translate(666.113281 0)"/>
      <use xlink:href="#DejaVuSans-55" transform="translate(734.521484 0)"/>
      <use xlink:href="#DejaVuSans-43" transform="translate(807.714844 0)"/>
      <use xlink:href="#DejaVuSans-20" transform="translate(877.539062 0)"/>
      <use xlink:href="#DejaVuSans-3d" transform="translate(909.326172 0)"/>
      <use xlink:href="#DejaVuSans-20" transform="translate(993.115234 0)"/>
      <use xlink:href="#DejaVuSans-30" transform="translate(1024.902344 0)"/>
      <use xlink:href="#DejaVuSans-2e" transform="translate(1088.525391 0)"/>
      <use xlink:href="#DejaVuSans-39" transform="translate(1120.3125 0)"/>
      <use xlink:href="#DejaVuSans-33" transform="translate(1183.935547 0)"/>
      <use xlink:href="#DejaVuSans-36" transform="translate(1247.558594 0)"/>
      <use xlink:href="#DejaVuSans-20" transform="translate(1311.181641 0)"/>
      <use xlink:href="#DejaVuSans-2c" transform="translate(1342.96875 0)"/>
      <use xlink:href="#DejaVuSans-20" transform="translate(1374.755859 0)"/>
      <use xlink:href="#DejaVuSans-61" transform="translate(1406.542969 0)"/>
      <use xlink:href="#DejaVuSans-70" transform="translate(1467.822266 0)"/>
      <use xlink:href="#DejaVuSans-70" transform="translate(1531.298828 0)"/>
      <use xlink:href="#DejaVuSans-72" transform="translate(1594.775391 0)"/>
      <use xlink:href="#DejaVuSans-6f" transform="translate(1633.638672 0)"/>
      <use xlink:href="#DejaVuSans-78" transform="translate(1691.695312 0)"/>
      <use xlink:href="#DejaVuSans-2e" transform="translate(1750.875 0)"/>
      <use xlink:href="#DejaVuSans-20" transform="translate(1782.662109 0)"/>
      <use xlink:href="#DejaVuSans-66" transform="translate(1814.449219 0)"/>
      <use xlink:href="#DejaVuSans-72" transform="translate(1849.654297 0)"/>
      <use xlink:href="#DejaVuSans-6f" transform="translate(1888.517578 0)"/>
      <use xlink:href="#DejaVuSans-6d" transform="translate(1949.699219 0)"/>
      <use xlink:href="#DejaVuSans-20" transform="translate(2047.111328 0)"/>
      <use xlink:href="#DejaVuSans-30" transform="translate(2078.898438 0)"/>
      <use xlink:href="#DejaVuSans-2e" transform="translate(2142.521484 0)"/>
      <use xlink:href="#DejaVuSans-38" transform="translate(2174.308594 0)"/>
      <use xlink:href="#DejaVuSans-39" transform="translate(2237.931641 0)"/>
      <use xlink:href="#DejaVuSans-35" transform="translate(2301.554688 0)"/>
      <use xlink:href="#DejaVuSans-29" transform="translate(2365.177734 0)"/>
     </g>
    </g>
    <g id="line2d_30">
     <path d="M 212.764062 340.378437 
L 222.764062 340.378437 
L 232.764062 340.378437 
" style="fill: none; stroke-dasharray: 7.4,3.2; stroke-dashoffset: 0; stroke: #000080; stroke-width: 2"/>
    </g>
    <g id="text_18">
     <!-- Random Guess -->
     <g transform="translate(240.764062 343.878437) scale(0.1 -0.1)">
      <defs>
       <path id="DejaVuSans-6e" d="M 3513 2113 
L 3513 0 
L 2938 0 
L 2938 2094 
Q 2938 2591 2744 2837 
Q 2550 3084 2163 3084 
Q 1697 3084 1428 2787 
Q 1159 2491 1159 1978 
L 1159 0 
L 581 0 
L 581 3500 
L 1159 3500 
L 1159 2956 
Q 1366 3272 1645 3428 
Q 1925 3584 2291 3584 
Q 2894 3584 3203 3211 
Q 3513 2838 3513 2113 
z
" transform="scale(0.015625)"/>
       <path id="DejaVuSans-47" d="M 3809 666 
L 3809 1919 
L 2778 1919 
L 2778 2438 
L 4434 2438 
L 4434 434 
Q 4069 175 3628 42 
Q 3188 -91 2688 -91 
Q 1594 -91 976 548 
Q 359 1188 359 2328 
Q 359 3472 976 4111 
Q 1594 4750 2688 4750 
Q 3144 4750 3555 4637 
Q 3966 4525 4313 4306 
L 4313 3634 
Q 3963 3931 3569 4081 
Q 3175 4231 2741 4231 
Q 1884 4231 1454 3753 
Q 1025 3275 1025 2328 
Q 1025 1384 1454 906 
Q 1884 428 2741 428 
Q 3075 428 3337 486 
Q 3600 544 3809 666 
z
" transform="scale(0.015625)"/>
      </defs>
      <use xlink:href="#DejaVuSans-52"/>
      <use xlink:href="#DejaVuSans-61" transform="translate(67.232422 0)"/>
      <use xlink:href="#DejaVuSans-6e" transform="translate(128.511719 0)"/>
      <use xlink:href="#DejaVuSans-64" transform="translate(191.890625 0)"/>
      <use xlink:href="#DejaVuSans-6f" transform="translate(255.367188 0)"/>
      <use xlink:href="#DejaVuSans-6d" transform="translate(316.548828 0)"/>
      <use xlink:href="#DejaVuSans-20" transform="translate(413.960938 0)"/>
      <use xlink:href="#DejaVuSans-47" transform="translate(445.748047 0)"/>
      <use xlink:href="#DejaVuSans-75" transform="translate(523.238281 0)"/>
      <use xlink:href="#DejaVuSans-65" transform="translate(586.617188 0)"/>
      <use xlink:href="#DejaVuSans-73" transform="translate(648.140625 0)"/>
      <use xlink:href="#DejaVuSans-73" transform="translate(700.240234 0)"/>
     </g>
    </g>
   </g>
  </g>
 </g>
 <defs>
  <clipPath id="pf1282744ec">
   <rect x="43.78125" y="22.318125" width="446.4" height="332.64"/>
  </clipPath>
 </defs>
</svg>
